/* XPM */
static char *result[] = {
/* columns rows colors chars-per-pixel */
"126 128 35 1 ",
"  c #007373",
". c #007F7F",
"X c #00B7B7",
"o c #008F8F",
"O c #005B5B",
"+ c #00A7A7",
"@ c #004343",
"# c #006F6F",
"$ c #4BC3C3",
"% c #9FDFDF",
"& c #009F9F",
"* c #008787",
"= c #23B7B7",
"- c #77CBCB",
"; c #00ABAB",
": c #770000",
"> c #AB5700",
", c #F3B323",
"< c #D7D700",
"1 c #C7C700",
"2 c #BBBB00",
"3 c #E3E300",
"4 c #2F2F2F",
"5 c gray23",
"6 c gray12",
"7 c gray67",
"8 c #BBEBEB",
"9 c #DBF7F7",
"0 c #5B5B5B",
"q c #573F1F",
"w c #430000",
"e c gray50",
"r c gray56",
"t c black",
"y c white",
/* pixels */
"  .     . . .                   .   .         . . ...   . . . .   .   . ....     .    . ....     .      .   .          . . ..X",
"                                                                                 .               .                           X",
" ............. . .................. ....................... ................       . .......       . ...... .................X",
"              .                                                             .. ..  ..       .. ..  ..                        X",
" ....  oooo.. ......... ...... ......... ...... ...... ......... ...... ...... ........ ...... ................. ...  oooo...X",
"  . OO.o+++o..  . . ..  ..  ... . ... ... . ... ... ... ................................................. ... ...  OO.o+++o. X",
" ...@@#o$%$ ......................................................................................................#@@#o$%$ ..X",
" ...@@O.&X&#......................................................................................................O@@O.&X&#..X",
" ...@@@O.. O......................................................................................................O@@@O.. O..X",
" ...O@@@@@O#......................................................................................................OO@@@@@O#..X",
" ...OO@@@O#.......................................................................................................#OO@@@O#...X",
" ... OOOO#......................................................................................................... OOOO#....X",
" .....o. .o.o.......................o...o...o...o.o...o...o.o.ooo...o.ooo.oo.......o......o..o.....o......o..o..o....o. .o.o.X",
" .............o................................................................o...o..oo..o..o.....o..oo..o..o...............X",
" o..ooooo.ooo.....ooooo.ooooooooooooooooooooooo.ooooooooooooooooooooooo.oooooooooooooooooooooooooooooooooooooooooooooooo.ooooX",
" .ooo..oo.oo.o.*.    .  ..     ..     ..     .  ..     ..     ..     .  ..   ..  .. .. ... ..  .o.o.oo.ooo.oo..oo..o..oo.oo..X",
" ...oooooooooo..  @@@@@@@@@@@@@@@@@@@@@@@@@@@@@@@@@@@@@@@@@@@@@@@@@@@@@@@@@@@@@@@@@@@@@@@@@@@@@@@@@@@@@@@@@@@@O oooooooooooooX",
" oooooooo&oooo. &OOOOOOOOOOOOOOOOOOOOOOOOOOOOOOOOOOOOOOOOOOOOOOOOOOOOOOOOOOOOOOOOOOOOOOOOOOOOOOOOOOOOOOOOOOOOOOOoooooooo&ooooX",
" oooo&&&o&o&ooo=&&******************************************************************************************* O@&&&o&&&o&o&ooX",
" &oo&&o&ooooo&&-=&&ooooooooo&oooooo&oooooo&ooooooooo&oooooo&oooooo&ooooooooooo&&&&&o&&&&&&o&&&&&&&&&o&&&&&o&&*O@&&&&&o&ooooooX",
" oo&&  oooo&&&o-$&&&&&&&&&&&&&&&&&&&&&&&&&&&&&&&&&&&&&&&&&&&&&&&&&&&&&&&&&&&o&&oo&&o&&oo&&o&&oo&oo&&o&&o&&o&&*O@ooo&  oooo&&&X",
" o&&OO.o+++oo&o-$&ooooo&ooooooooooooooooooooooo&ooooooooooooooooooooooo&&ooooooooooooooooooooo&&o&&&ooo&ooooo*O@o&&#O.o+++oooX",
" &&o@@#o$%$ &o&-$&o&&o&&&o&&o&&&o&&&&&o&&&o&&&&&&&&&&&&&&&&&&&&&&&&&&&&&&&&&&oo&&oo&oo&&oo&oo&o&&&oo+&o&&o&oo*O@&& @@#o$%$ &&X",
" &&o@@O.&X&#&o&-$&ooooooooooooo&&&o&o&ooo&o&&&&&&&&&&&&&&&&&&&&&&&&&&&&&&&&&&&&&&&&&&&&&&&&&&&&&&&&&+&&&&&&&&*O@&* @@O.&X&#&&X",
" &&&@@@O.. O&&&-$&&&&&&&&&&&&&&&+&&&+&&&&&&&&&+&+&+++&&&+&+&+&+&&&+&&&+&++++&&&&&+&&&+&&+&&&&&&+&&&&&&+&&+&&&*O@&* @@@O.. O&+X",
" &+&O@@@@@O &&&-$+&&&&&&&&&&&&&&&&&&&&&&&&&&&&&&&&&&&&&&&&&&&&&&&&&&&&&&&&&&&&&&&+&&&+&&+&&++&&+&&++&&+&&+&&+*O@&&*O@@@@@O &&X",
" &&& O@@@O ++&&-$++++++++++++++++++&+++++++++++++++++++++++&+++++++++++++++++++++++++++++++++++++++++++++++++oO@++* O@@@O +++X",
" +&&*    *+&&&+-$+&++&&+&&+;#:::::::::::::::::::::::::::::::::::::::::::::::::::::::::::::::::::: ;++++++&&++oO@++&*    *+&&+X",
" +&&&***&++++&+-$++++++++++#:::::::::::::::::::::::::::::::::::::::::::::::::::::::::::::::::::::: +++++++++=&O@+++&***&+++++X",
" ++++++++++++++-$++&++&&++&:::>,,,,,,,,,,,,,,,,,,,,,,,,,,,,,,,,,,,,,,,,,,,,,,,,,,,,,,,,,,,,,,,,>:::++++++++++&O@+++++++++++++X",
" +++==+===+==++-$++++++++++::>,<<122222222222222222222222222222222222222222222222222222222221<<,>::*+===+==+=&O@=++==+===+==+X",
" =+=+++++++++=+-$++++++=+++::,3,>::::::::::::::::::::::::::::::::::::::::::::::::::::::::::::>,3,::*+++++++++oO@+++++++++++++X",
" =++=+==+==+++=-$++==++=++=::,3>::::::::::::::::::::::::::::::::::::::::::::::::::::::::::::::>3,::*==+==++=+oO@+===+==+==++=X",
" =======+++==+=-$=+++++++++::,<::::::::::::::::::::::::::::::::::::::::::::::::::::::::::::::::<,::*==+++====&O@=======+++===X",
" +++===+====++=-$==++==+==+::,1::::45:::::::::::::::::::::::::::::::::::::::::::::::::::::45:::1,::*++====+==&O@======+====+=X",
" +============+--=+++++++++::,1::::66:::::::::::::::::::::::::::::::::::::::::::::::::::::66:::1,::*=========&O@=============X",
" ====& oooo====--==========::,1::::::::::::::::::::::::::::::::::::::::::::::::::::::::::::::::1,::*=========&O@====& ooo&===X",
" ===&O.o++.o===--$=========::,1::::::::::::::::::::::::::::::::::::::::::::::::::::::::::::::::1,:: =========&O@===&O.o++.o==X",
" ===@@#o$%$ $==-%$=========::,1::::::::::::::::::::::::::::::::::::::::::::::::::::::::::::::::1,:: $$$==$$==&O@==&@@#o$%$ $=X",
" ===@@O.&X&#===-%$=========::,1::::::::::::::::::::::::::::::::::::::::::::::::::::::::::::::::1,:: ==$=====$=O@$$o@@O.&X&#==X",
" ===@@@O.. O$==-%$=========::,1::::::::::::::::::::::::::::::::::::::::::::::::::::::::::::::::1,:: =$$$$$$=$=O@$$o@@@O.. O$=X",
" $$$O@@@@@O*$$=-%$==$==$==$::,1:::::::7777:::7777::77::77:777777:77::77:77::77::7777:::77::::::1,:: $$=$$$$$$=O@$$oO@@@@@O*$$X",
" $==oO@@@O.--=$%8-$$$$$$$$$::,1::::::77::77:77::77:77::77:::77:::77::77:777:77:77::77::77::::::1,:: -$=$$$$$$=O@$$+oO@@@O.---X",
" $$$+oooo&$$$$$%8-$========::,1::::::77::77:77:::::77::77:::77:::77::77:777777:77::::::77::::::1,:: $$$$$$$$$=O@$$$+oooo&$$$$X",
" $$$$+++$--$-$$%8-$$$$$$$$$::,1::::::777777:77:::::777777:::77:::77::77:77:777:77:777::77::::::1,:: $--$$--$-$O@---$+++$--$--X",
" $--$$$--$$---$%8-$$$$$$$$$::,1::::::77::77:77:::::77::77:::77:::77::77:77::77:77::77::77::::::1,:: $$$$$$$--$O@---$$$--$$---X",
" $$$%------%-$$%8-$--$---$-::,1::::::77::77:77::77:77::77:::77:::77::77:77::77:77::77::::::::::1,:: -$$--$--$$O@$$$%------%--X",
" --$$-$$$-$$$$-88-$$$$$$$$$::,1::::::77::77::7777::77::77:::77::::7777::77::77::7777:::77::::::1,:: ---------$O@---%------%--X",
" %%---%%--%--%%88%---------::,1::::::::::::::::::::::::::::::::::::::::::::::::::::::::::::::::1,:: %%%%%%%%%%O@%%%%%%%%%%%%%X",
" %%%%%%%%%-%%%%88%%--%%-%%-::,1::::::::::::::::::::::::::::::::::::::::::::::::::::::::::::::::1,:: --%--%-%%%O@%%%--%%%%-%%%X",
" %--8%%88%888--98%%%%%%%%%%::,1::::::::::::::::::::::::::::::::::::::::::::::::::::::::::::::::1,:: %%%%%%%%8%O@8888%%88%8888X",
" %%%8%%%%%88%%%98%-%%--%--%::,1::::::::::::::::::::::::::::::::::::::::::::::::::::::::::::::::1,:: %%%%%%%%%%O@%%%8%%%%%88%%X",
" %%%8= oooo88%89%%%%%%%%%%%::,1::::::::::::::::::::::::::::::::::::::::::::::::::::::::::::::::1,:: 88%88888%%O@8888= oooo888X",
" 88%&O.o++++8889988%%8%%%8%::,1::::::::::::::::::::::::::::::::::::::::::::::::::::::::::::::::1,:: %888%8888%O@888oO.o++++88X",
" %%%@@#o$%$ 9%%998888888888::,1::::::::::::::::::::::::::::::::::::::::::::::::::::::::::::::::1,:: %888%8889-O@988@@#o$%$ 99X",
" 888@@O.&X&#888998%%%%%8%%%::,1::::::::::::::00005:0:00::0q0:0q:00055:00:00:0q0:0q5::::::::::::1,:: 888988888%O@88$@@O.&X&#88X",
" 888@@@O.. O888998888888888::,1::::::::::::::::::::::::::::::::::::::::::::::::::::::::::::::::1,:: 998999899-O@89=@@@O.. O88X",
" 899O@@@@@O&898998888888889::,1::::::::::::::00:00::000:05::0:005:0:05::00q00005:00::::::::::::1,:: 888888888%O@8%+O@@@@@O&88X",
" 888&O@@@Oo8888999889989988::,1::::::::::::::::::::::::::::::::::::::::::::::::::::::::::::::::1,:: 889888888%O@8%=&O@@@Oo888X",
" 888$&o&&=$%%89999888888888::,1::::::::::::::qq00005:0qqq05:0q005:5::00q005::05:500::::::::::::1,:: 88988%%88%O@8%-$&o&&=$%%%X",
" 888-====$8888899998%888%88::,1::::::::::::::::::::::::::::::::::::::::::::::::::::::::::::::::1,:: 888888888%O@88%-====$8888X",
" 8888%%%%%%8%8899988%888%88::,1::::::::::::::0:000qq:00::50q0:505q5::000505:005:505::::::::::::1,:: 8%%%8%%8%-O@%%%8%%%%%%8%%X",
" 8%%888%%%%%%%%9988888%8888::,1::::::::::::::::::::::::::::::::::::::::::::::::::::::::::::::::1,:: 888%888%%-O@%%%888%%%%%%%X",
" 888-%%%%%--%%89%8%%8%%%8%%::,1::::::::::::::00:00qq500:00::05005:5:50qq05:005q0:q5::::::::::::1,:: %%8%%8%%8%O@888-%%%%%--%%X",
" %%%-%%%%%%%%%%98888%%8%%%8::,1::::::::::::::::::::::::::::::::::::::::::::::::::::::::::::::::1,:: %%%%%%%%%%O@%%%-%%%%%%%%%X",
" %%%%%-%%-%%-%%988%%-%%%-%-::,1::::::::::::::0q00005q05::00:0:005:00:00q050::0q:0q5::::::::::::1,:: %%-%%-%%%%O@-%%%%-%%-%%--X",
" %--%%---------98%%%%%%%%%%::,1::::::::::::::::::::::::::::::::::::::::::::::::::::::::::::::::1,:: %%--%-%--$O@---%%---%%---X",
" %%%$--$$-$$$--98%---------::,1::::::::::::::::::::::::::::::::::::::::::::::::::::::::::::::::1,:: --------$$O@$$$$--$$-$$$$X",
" -%%$o oooo$---88%--%-$-%-$::,1::::::::::::::::::::::::::::::::::::::::::::::::::::::::::::::::1,:: ---------$O@---$o oooo$--X",
" ---*O.o+++o$--88%--$-$-$$$::,1::::::::::::::::::::::::::::::::::::::::::::::::::::::::::::::::1,:: $$$$$$$$$=O@$$$.O.o+++o$$X",
" $$$@@#o$%$ $$$88---$---$--::,1::::::::::::::::weeeeeeeeeeeew::::::::::::::::::::::::::::::::::1,:: -$$--$$$$=O@$$$@@#o$%$ $$X",
" ---@@O.&X&#=$-88-$$$$$$$$$::,1::::::::::::::::errrrrrrrrrrre::::0055:00:00:0q0:0q5::::::::::::1,:: -$$$$$$$$=O@$$&@@O.&X&#=$X",
" $$$@@@O.. O$$$88----$$$---::,1::::::::::::::::erttrrttttttre::::::::::::::::::::::::::::::::::1,:: $$$$$$$$$=O@$$&@@@O.. O$$X",
" $$-O@@@@@O.=$$88-$$$$$$$$$::,1::::::::::::::::erttrrttttttre::::50:05::00q00005:00::::::::::::1,:: ==$==$====O@$=&O@@@@@O.==X",
" =$$&O@@@O.$=$=8%-$$$$$$$$$::,1::::::::::::::::erttrrttrrrrre::::::::::::::::::::::::::::::::::1,:: $$$$$$==$&O@$$&&O@@@O.===X",
" $$$&**  *$==$$8%-$$==$===$::,1::::::::::::::::erttrrttrrrrre::::55::00q005::05:500::::::::::::1,:: $$=$$====&O@===&**  *====X",
" $===&&&=======%%-$$$=$=$$$::,1::::::::::::::::erttttttttttre::::::::::::::::::::::::::::::::::1,:: =========&O@====&&&======X",
" $=$===========%%$=========::,1::::::::::::::::erttttttttttre::::::::::::::::::::::::::::::::::1,:: =========&O@=============X",
" ==$===========%-$=========::,1::::::::::::::::errrrrttrrttre::::::::::::::::::::::::::::::::::1,:: =========&O@=============X",
" ==============%-$=========::,1::::::::::::::::errrrrttrrttre::::::::::::::::::::::::::::::::::1,:: =========&O@=============X",
" ==============--$=========::,1::::::::::::::::erttttttrrttre::::::::::::::::::::::::::::::::::1,:: =========&O@=============X",
" ===+++++++++==-$==========::,1::::::::::::::::erttttttrrttre::::::::::::::::::::::::::::::::::1,:: +++++++++oO@+++++++++++++X",
" +++==++=++==++-$=++==+==++::,1::::45::::::::::errrrrrrrrrrre:::::05005::0q00005q05:::::::45:::1,:: ++=++==++&O@+++==++=++==+X",
" +==++++=++++==-$=+++++++++::,1::::66::::::::::weeeeeeeeeeeew:::::::::::::::::::::::::::::66:::1,:: ++=++++++&O@+++++++=+++++X",
" +++&. oooo==++-$===+===+==::,1::::::::::::::::::::::::::::::::::::::::::::::::::::::::::::::::1,:: +=+++===+&O@===+  oooo===X",
" ==+#O.o+++o&+=-$=+=+=+=+=+::,1::::::::::::::::::::::::::::::::::::::::::::::::::::::::::::::::1,:: ++++++&=+&O@+==#O.o+++o&=X",
" +++@@#o$%$ +++-$=+++=+=+++::,1::::::::::::::::::::::::::::::::::::::::::::::::::::::::::::::::1,:: +++++++++oO@+++@@#o$%$ ++X",
" +++@@O.&X&#+++-$=+++++++&+::,3>::::::::::::::::::::::::::::::::::::::::::::::::::::::::::::::>3,:: &&+&&++++*O@&&*@@O.&X&#++X",
" +&&@@@O.. O++&-$++++++++++::,3,>::::::::::::::::::::::::::::::::::::::::::::::::::::::::::::>,<,:: ++++++&++*O@++*@@@O.. O++X",
" +++O@@@@@OO+++-$&&+&&+&&+&::>,3311111111111111111111111111111111111111111111111111111111111<33,>:: &&&&&&&&&*O@&&*O@@@@@O.+&X",
" +&& O@@@OO&+&&-$&&+&&+&&+&:::>,,,,,,,,,,,,,,,,,,,,,,,,,,,,,,,,,,,,,,,,,,,,,,,,,,,,,,,,,,,,,,,,>::: ++&&&+++&*O@+&* O@@@O#&+&X",
" +++*    *&&&&+-$&&&&&&&&&&O::::::::::::::::::::::::::::::::::::::::::::::::::::::::::::::::::::::@ &&&&&&&&&*O@&&&*    *&&&&X",
" &&&&****&&+&&&-$&&&+&&&+&&.O::::::::::::::::::::::::::::::::::::::::::::::::::::::::::::::::::::@ *&&&&&&&&&*O@&&&&****&&+&&X",
" &&+ooo&&&&&&&&-$&&&&&&&&&&&& OOOOOOOOOOOOOOOOOOOOOOOOOOOOOOOOOOOOOOOOOOOOOOOOOOOOOOOOOOOOOOOOOO  oooooooo&oo*O@oooooo&&&&&&&X",
" ooo&&&o&&&o&oo-$&&&o&&&o&&o&&******************************************************************&&&&&&o&&&&&&*O@&&&&&&o&&&o&&X",
" &&&o&&o&&&o&o&-$&&&o&&&o&&o&&&&&&&o&&&&&&o&&o&&&o&&o&&&&&&o&&&&&&o&&&&&&o&&o&&&&&&o&&oooo&oooooo&oo&&oooo&oo*O@o&&o&&o&&&o&&X",
" &oo&&&&&o&&&oo-$&&&&&o&&&&&&&o&&o&&&o&&o&&&&&&o&&&&&&o&&o&&&o&&o&&&o&&o&&&&&&o&&o&&&oo&&&&&&&&&o&&&&oo&&&&&&*O@o&&&&&&&o&&&&X",
" &&&&ooo&o&oo&&-$&ooo&o&ooo&o&o&&o&o&o&ooo&ooo&o&ooo&ooo&ooooooooooooooooooooooooooooooo&ooo&oo&oooooooo&ooo&*O@ooo&ooo&o&oooX",
" &oooo&&&o&&&oo-$&o&&&o&&&ooo&&&&o&o&ooo&ooo&&&o&&&ooo&&&ooooooooo.oooooooooooooooo.ooooooooooooooo.ooooooooo*O@&oooo&&&o&&&oX",
" ooooooo.oooooo-$&ooo.oooooooooooooooooooooooo.ooooooooooooooo.ooo.ooo.o.ooo.oo..oo.oo.o..o..oo..oo.oo.o..o...O@ooooooo.oooooX",
" oooo  oooooo..-$&ooooooooooooooooooooooooooooooooooooooooooooooooooooooooooooooooooooooooooooooooooooooooooo.O@oooo  oooooooX",
" oo.#O.o+++o.oo-$&..o...o..o...oo..o..o...o..o...o..o...o..o..oo..o..o...o..o...o..o..o.........o..o..o...... O@...OO.o+++o..X",
" ...@@#o$%$ .o.-$&..o...o..o.......o..o...o..o...o..o...o..o......o..o...o..o...o..o..oooo.oo...o..o..oooo.o. O@...@@#o$%$ ..X",
" ..#@@O.&X&#.oo-$&....o.......o..o.............o.............o............................................... O@...@@O.&X&#..X",
" ..#@@@O.. O...-$&o...o...o...o..o...o.....o...o...o.....o...o................................................O@...@@@O.. O.oX",
" ...O@@@@@OO...-$&........................................................................................... O@...O@@@@@OO..X",
" ... O@@@OO....-$&........................................................................................... O@... O@@@OO...X",
" ....  OO .....-$&........................................................................................... O@....  OO ....X",
" .....  .......-$&........................................................................................... O@.....  ......X",
" ...... .......-$&............................................................................................O@...... ......X",
" ..............--&*******************************************************************************************.OO.............X",
" ........... ..o$%-==&&&&&&&&&&&&&&&&&&&&&&&&&&&&&&&&&&&&&&&&&&&&&&&&&&&&&&&&&&&&&&&&&&&&&&&&&&&&&&&&&&&&&&&&*O#........... .X",
"                o+X--XXXXXXXXXXXXXXXXXXXXXXXXXXXXXXXXXXXXXXXXXXXXXXXXXXXXXXXXXXXXXXXXXXXXXXXXXXXXXXXXXXXXXXXX*#              X",
"   . ..  .  ...  ..  .. ...   .  .   .  .  ..  .  ..  .  .   .  .   .  .  ..  .     .  .  ..  .  ..   .  .   .  .   ..  .  ..X",
"   .     .                .   .  .   .  .      .      .  .   .  .   .  .      . .   .  .      .   .   .  .   .  .       .    X",
"       .   .   . . ..   ..  .      .         .   .                                              ..  .      .          .   .  X",
" .     oooo.   . .          .  .   .   .     .   .     .     #   # # . ## ## #   # # . ## ## #      .  .   .   .      oooo.  X",
"    OO.o+++o                                                                                                       OO.o+++o  X",
" ## @@#o$%$    ###  # ##    #  ##  #  ##  #  ## ##  #  ##  #  ##  #  ##  #    ##  #  ##  #  # ##    #  ##  #  ##   @@#o$%$   X",
"    @@O.&X&#        #       #      #      #         #      #      #      # #      #      #  #       #      #      O@@O.&X&#  X",
"    @@@O.. O          # ##                                                                    # ##                O@@@O.. O  X",
"    O@@@@@OO                                                                                                      OO@@@@@OO  X",
" ###OO@@@OO######### ####### ###### ###### ######### ###### ###### ######## ###### ######### ####### ###### #######OO@@@OO###X",
"     OOOOO                                                                                                          OOOOO    X",
" ######      ##           #########   ##  ###                                             #################   ##   ###       X",
"            .     ..  .             .   .         ..  .     ..  ..    .     ..  ..        .                 .   .          ..X",
"                                                                                                                             X",
"... ..... ............ .. .... .. ... .. ...... ...... .. ... .. ..... .. ... .. ...... ...... .. .... .. ... .. ....... ....X"
};
