/* XPM */
static char *_6f01ad5e692464fb5fcb5920087fed2lxSZcD33MAZt6YIk[] = {
/* columns rows colors chars-per-pixel */
"127 127 37 1 ",
"  c #6F0073",
". c #870087",
"X c #5B005B",
"o c #430043",
"O c #9F009F",
"+ c #774F2B",
"@ c #6F4B27",
"# c #5F4323",
"$ c gray23",
"% c gray34",
"& c #875333",
"* c #434343",
"= c #573F1F",
"- c #4B3B1B",
"; c #43331B",
": c #4B4B4B",
"> c #2F2F2F",
", c gray20",
"< c #83532F",
"1 c #770000",
"2 c #830000",
"3 c #570000",
"4 c #3B2F17",
"5 c #6F0000",
"6 c #8F0000",
"7 c #9F0000",
"8 c #630000",
"9 c #4B0000",
"0 c #9B008B",
"q c #AB00AB",
"w c #A70000",
"e c #430000",
"r c #B700B7",
"t c #232323",
"y c #5B5B5B",
"u c #676767",
"i c white",
/* pixels */
" ... XXoooooooXX ...  XXXXoooooooooooXX .. XXXXXXXXXXXooooooooooooooooXX  ......     XXoooooooooooooooooooooooXXX    XXXXXXXXXX",
"X.... XooooooXX ...    XXXXoooooooooX ...O.+++++@#$  XXooooooooooooXXXX  ........  ... XoooooooooooooooooXXXXXX  ....%+++++++++",
"+X ... XXXoooXX  .      XXXXooooooooX ....&+@@@@###*XXXXooooooooooXXXXX  ............  XoooooooooooooooooXXXXXX ....X+@@@@@@@@@",
"##X...... XooXX    XX      XXooooXXX ..O.++@@########XXXXXXooooXXXXXXXX  ......  ..    XXooooooooooooooXXXXXXX ....%+@@@@@@@@@@",
"##+X ...  XXXXXX  XX      XXooooXXXX ..O.+@@++XXXX$##XXXXXXXooXXXXXXXXX  ......  ..   XXXXooooooooooooXXXXXXX  ...X+@@@@@@####X",
"####X..  XXXXXXXXXX    XXXXooooXXXXX ..O.+@#+ .   X#$  XXXXXXXXXXXXXXXX  ..  ..    XXXXXXXXXXooXXXXooXXXXXXXX  ..%++@@@@@####$X",
"+##=X... XXXXXXXXXXX  XXXXooooXXXXXX  .O.XXXX    . ++  XXXXXXXXXX   XXXX  ....    XXXXXXXXXX$$=oXXoooooXXXXXX  ..%@@@@@###$#=XX",
"X#=-X ...  XXXXXXXXXXXXXXooooXXXXXXXX .....  XX  . ++  XXXX#####+ .  XXXX  ..  XXXX####++#######===----oXXXXX  ..%@@@@@=;oX$=X ",
"X#=-X....  XXXXXXX       XXXXXXXXXXXXX ....     .. +#XXXXX$#####++    XXXX   XXooX$###@@@@#########=-===oXXXX  .. :+@@#=;oXX=X.",
"X#=-X....    XX   ...........    XXXXXX ...  .... X##XXXX##@@@@@@#+ .  XXXX  $---##@@@@@@@@@@######=-=#=-oXXX  ... :@##=;X X=X.",
" X$=X....  . X ........  .......  XXXXXX .   .... X==XXX$#@@@#####+ .  XXooXX#####+@@@@@@@@####==##---====oXXX  ...+@##=;X.X=X.",
"..X#X ... ... ........ ++   .....    XXXX  X ..   X>>XX##@@@@#####+ .  XX>;-=#@@@+++@@@@@#####=-;==-;;;=#=-oXXX  ..%@##=;X.X=X ",
"..X#X...   ... XX.... +++    ....  .  XXXXXXX     X>>XX##@####$$##$   XXo--=#@++++++++++@#====-->===oo=##=->oXXX ..%@##=;X.X=X ",
"..X#X..     ..X#++%. ++#*  XX      ..  XXXXXXXX  XX>>XX+@####XXXX##X XX,-=##@+++++++++++@#-===-oo==XXXX$#-;--oXXX .%@##=;X.X=XX",
"..X#X.     . X+++++X++##X  XXX     ..  XXXXXXXX   X==XX#####X   X=#   X>-##@+++<<<<+++++@#->>--oo=#XXXX$#=o--oXXX .X###-;X.X=XX",
"..X#X  XX ..X#+++++++##=X  XXXXXXXX    XX  XXXX   X#$ X####XX.. X=# . X,-#@+++<<<<<<++++@#-oo>-oX##X   X#XX=-oXXX  X##=-;X X=XX",
" .X#XXXX ...X++++++@###=X  XXXXXXXXX  XXXX XXX    X##XX####X ... ==  XX#####@+<<<<<++++@#=-oo>-oX##X.. X=XX$-oXXXXXX##=-;X.X=XX",
"  X#$XX ....X++++@@####=X  XXXX  XXXXXXXXXX       X##XX###$X ... =,XX$-###==#+<<<<++++@##-;oX,;oX##X...X#X X-oXXXXX$##=-;X.X=XX",
"X X=XX  ...O.++++@#####=$  XXX   XXXXXXXooXX      X#=XX=##X .... =>XX,-#####$+<<<++++@###-;oXooXXXX . X##X X-,oXXXXX$#=-;X.X$XX",
"XXo;X   ..OO.+++@#####=-$  XX   X#######=-=XXXXXX X==XX==XX..   X=>XX>;=##+XX+<<++@@@###=-;oXXXXX ...X###X X--;oXXXXX$=-;X XXXX",
"XXo;X  ...OO.++@####==--$  XX  X*########=#XXXXXXXXooXX>=X ..   X,>oo>;=###X +<+++@@####=--,oX XX . X$==#$X=-;;oXXXXX$=-;o XXXX",
"XXo;X ....OO.++###=-----$  XX X##+@@@@@@@#$  XXXXXXXXXX>=X ..XX X,;oo;;====X +<++@@###=====->X. X .X##===##=-;;X XXXX$=-;oXXXXX",
"XXo;X ...OOO.++###=->$=-$X XX X#@@@@++++@#+   XXXXXXXXo-=X   XXXXooooo,==-=X +++@@####$$$#=--XX  ..X========-;;X  XXX$=-;oXXXXX",
"XXo;X ..OOOO. X#=--;$ X;oXX  XX+@@@#$ X##@+..  XXXXoooo;>XXXXXXXXooooXX#=-# .+++@####XXX $===-=X...X==---===-;;X   XX$=-;oXXXXo",
"XXo;X .OOO.. X+##=-;oXX;oXXXXX$+@@#*X  X+++..  XXXoooooooXXXXXXXXXooXXX#=-# .++@####$X   X$#=--XX X#=----#+#-;;X    XX#=oXXXXoo",
"XXo;X .OO. ++++@##=;oXo;oXXXX##@@#$    .X#+..  XXooooooXXXXXX11XXXXXXXX#=-# .22@###XXX .. X$=--=#++#-;;;-X X-;;X .. XXXXXXXoooo",
"XXXoX .O. ++@@+++*X$XXo;oXXXX##@@#$X  .. #+..  XXoooooXXXXXXXXXX XXXXXX==-# .21####X  .... +#==####=-=ooX  X-;;X .. XXXXXXXoooo",
"XXXXX .. +++@#*       X;>ooXX##@@#$X .. X#+..  XXooooXXXXXX  ....  XXXX=--# .++XX##X ......+@###@#=-;X     X-;;X ... XXXXXXoooo",
"XXXXX ..X+@@#*X ......X;>ooXX##@@##X .. X#*   XXXoooooooXXX  ....  XXXo>->X .++XX$#X  XXX X+@@####==X     XX$>;$X .  XXXXXXoooo",
"XXXXX ..X+@#*  ..OOOO.X;>ooXX##@@##X ..XX#$  XXooXX>----=XX        XXoo--oX..++  $#XX$=##+++@@@##--X ... XXX $-->X   XXXooooooo",
"XXXXX ..X++*X ..OOO...X;>ooXX#+++##X . Xo=#XXXXoXX$###===$XXXX    XXXX3=>XX..++. *==o####@@@@@@##=-$X .  XX  X--;$XX XXoooooooo",
"XXXXX ..X++  ..OO..   X4>ooXX++.X##XX  Xo-=XXXXXX##@@@#####==XX  XXoo51=>XX67++. *===#@@@@@@@@@@@#=->X   XX .X---->X XXoooooooo",
"XXXXX  .X+: ..OO..  XXo4>ooXX++. #=XX  Xo-,XXXXX$++++++@@##==XXX XXoo51885266+X  *###@@@@@@@######=-;X    X .X$=-;;$XXXoooooooo",
"XXXXX   X+: .OO..XXXXoo4>ooXX++.X==XX  Xo-,XXXX+++<<<<<22+@##XXXX Xoo851267..XX. *##@@@@@@@#######=-;X ..      $-;;;>oXoooooXXX",
"XXXXX   X+: .O.. XX Xoo4>ooXX+ . XX    XXooXX X++++++++11@@##$XXXXXo9381266..XX  $##@@@@###=-===-==-;X ..      X$>;-ooXooooXXXX",
"XXXXX   X+: .O.X   . Xo4>ooX  ...  ..  XXXXXX..22+@########@###XXXX999812X   XXXX###@@@###=-;-=-;-=-;X    XXX .  $;oXooXXXXXXXX",
"XXXXX   X+X .. X  .. Xo4>oXX .......  XXXXXX ..21++%+@@+:+++##=ooo3993812X   XXXX###@@##=-->>==>>==-;X   XXXX .. o;oXooXXXXXXXX",
"XXXXXX     ..  X ..  Xo4oXXXX .....  XXXXXXX . ++X.O022..0.+##=--9999oX12X .. X$#=##@##=-;;oX==oX==;;X XX  XX .. o;oXooXXXXXXX ",
"XXXXXXX   ... XX ..   XooXXX  ....  XXXXXXXXX.6++.Oq0......X+#==39993XX22X ..XXX#=##@#=-;;oXXX$XX$=;;X XX  XX .  X;oXXoXXXXXX  ",
"    XXXX  .. XXXX    .  XXX  ..    XXXXXX122277770qqO... ++ X588839oXXX22X   XXXX###@#=;;oXX XXX $=;;X XX  XX    X-oXXXX       ",
" ... XXXX  . XXXX    ... XX       XXXXXXX2226777w00O0.  X##XX888399oXXX22X   XXXX##++#=;;XX  XXXX$--oX XX  XX   X$-oXXX . XXXXX",
"X.... XXX    XX  XXX  ...  XXXXXXXXXXXX  ..26777ww7..++###=>=88444;;,XX22X XXXXXX##X $=;;X   XXXXo;oXXX  XXXX   X$-oXX ..X+++++",
"+.     XX   XXX  XX      XXXXXXXXXXXXX    222677777.X+#=====388=>;;;-o812XXXXXXXX##  *-;;X   XXXXooXXXXX XXXXX Xo=-X    .+++++@",
"+++#X..  XXXXXXXX  . XXXXooooXXXXXX    . ++22+2777762@#->oX8855Xo>;;;-=12==XX12X $#  X-;;oXXXXX   X12X XXXXXXXXo-==X...X++++++@",
"@@@#+    XXXXXX   .. XXXXooooXXXXoXX  .. ++22++6777225==oXX851158=====812==XX51X XX  X->oXXXXXXX   X2X XXXXXXXX,-=#:...+++++@@@",
"###@#=X  XXXX  ...... XXXoooo###=-oXX .. ++22XX26622258XX X85122215555122=#XXXX    . X-XXXXXXXXXX . XXXXXXXXooo>-=#+++++++++@@@",
"#####-X   XX  .......  XXooo=###=-,XXX . ++22XX22222188oXXX551222155555221#XXXX    . X>X  XXXX    .   XXXXXoooo,=##@++++++++++@",
"####=-X  .    .......  XXoo=####=-=XX22. ++22XX22555839938511222158====5221#$X     . X>X.     .. 22..  XoooXXXX$##@++++%.....+#",
"##==--=X ..   ......  XXXoo##$$#=-=XX22. ++22X122888399e985122221584--=8515=#XXXX .. XXX.  XX .. X2X. XXoooXXXXX#@++++&......X$",
"XX=--;->X    ......  XXooXX++XXXo-=XXX . ++22++21==39ee9385222221584-=======###=$ ..  X22..22X   XX  XoooooXXX +@++++.0...     ",
"XXo=-;;;X    .....  XXoooX$++  XX->oXX ..+222++21#=3399338522222158=>=###====@@8#X.XX  X2..22X XXXXXXXoooooXX  +++++&.OO.      ",
"XXXX=---X  X       XX=###++++XX X-;;#12..2222XX21XXXX39888522222158XXXXXX122267662222.. X2222X 22XXXoooooooX ..%+++.0OOO. X   X",
"    X---X         XX==##@@++XXX X-;>#12..2222X222XXXX885512266622211XXXXX222277772111X.  1222X 11XXooooooooX  .++++&.....XXX XX",
"....X===$X ..  XXXX===#####XXXXXo;>oXX ....222222XX++12226777777777762222222226628===X  XXXXXXXXXXXoooooooX .X++++++&&+++++XXXX",
"....X###$X .  XXXXo-=#####$XXXXXX$oXX  ...2222262. +26667777777777777622222222221=;;>X XXXXX XXXXXXooooooXX .%++++++++++++++XXX",
"    X###$X   XXXXXo-$X  X#*    .  XXXX  X22++..77..777777776666776666222222225@22=-;;XXXXXXXXXXX#####XXXXX ..%+++@#####@+++++X ",
"X   X###XX  XXXXXXo=XX  X#*  X .. XXXXX X22+X..770.77777776222277622222222222==12=-;;oXXXXXXXXX######XXXX  ..%+++++++++++++++X ",
"X ..X+##X. XXXXXXXXXXX  X=X .22  XXooXXX ....O0776666622222222226222222225522==12=-;;oXXXXXXXX#####$XXXX ..OO.@@#X..OOO.#@+++X.",
"  ..X+##X. XXXXXXXXXXX  X-$ X15XXXoooXXX ....0077222222111111112222112221==12==12=-;-XXXXXXXX$####+XXX   ..OO.+++.Oqqqq.++++@+ ",
" .. X###X  XX XXXXXXX   X--=#===>>oooooX ....776222222155555555555888858X#=12==12=-;>X XXo=XX$###X  .......OO.+%.OqOOOO0...&@++",
"... X###X  X   XXXXX  .. X$####=--;ooooX ....77222222158888888888884488XXX#22==12=-;>X XXo=XX$##+ .........OO.+X.qrO...OOOO.@##",
"... X###X.   .. XXX  ..O...     X=-;;;oXX2...62221121588888888888884488X  X66@=12=-;>X XXXXXX$#X .....   ..OO.+X.qrO   .OOO.###",
"... X===X..  .. XXX .OOqqq0.    X$#--=# X260.6222@@1588888888558888-=81X   66@=12=-;>X XXXXXX##X......   ..OO.+X.Oq.   .OOOX###",
" .. X---X. X   XXX .Oqqrqq.+++$$X X==52 ...776221==8888888885XX5888XX26......#=12=-;>X XXooXX==X .....  X ...%+X.Oq.  X ...X###",
" .. X---X. X   XXX .OrrrO.X#####+.X$#12...6772225==8888888885  5888XX67..... $=11=-;>X XXooXX==X ....  XX ...%+X.OO. XX .  X===",
"  ..X===X      XX .Oqrqq.++#####@22XXXX..2262+115==8888888885  58XX X67..... $=88=-;>X XXooXX==X      X  ....%+X.OO. XX  X#=---",
"X ..X###X      X  .OqqO.X#######@11  X ..2222++15=-8888888885  88X  X67..... #888=-;>X XXooXX=-X     XXX ....++X..O. XX  X-----",
"X ..X@##X  ... X ..Oqq.++##===#XX=X  X ..22XX++15Xo33XX338885X ooXX X2622   X5588=-;>X 11ooXX=-XXXX  XXXX  ..X#X ... XX  X-----",
"  ..X+##X .... X ..OOO.+###---$ X=X  X ..22XX+@15Xo99Xo998888XXooXX X2222X XX5588=>>$X 11XoXX=-oXXXX XXXXX ..X#X ... XXX X>----",
" X .X##=X ...  X ...OO. X##---X X=$  X ..21XX==88Xo99Xo999388XXoo51XX1222X XX883-oXXXXXXXXXXX=-oXXXXXXXXXXX  X#X ... XXXXXX====",
" X .X#=-X  .. XX ....O. X#=---X X=$X XX.X15XX-=88XX99Xo9e9388XXoo51XX1111XXXX884;oX  XXXXXXXX=-oXXXXXXXXXXXX X#X ..   XXXXX$###",
"XX .X=--X    XXX  ..... X=----$ X==XX11 X55XX==88XX39Xo9e9388ooXXXXXX855588XX884;oX  XXXXXXXX=-oXXXXXXXXXXXXX$#XX      XXXX$###",
"XX .X--=X   XXXXX ..... X-----$XX-,XX11XX88XX==85XX33oo9e9983ooXXXXXX888888XX884-XX   XXXXXXX=-oXXXXXXXXXXXXX$=oXX      XXXX###",
"XX  X-$XXXXXXXXXX ......X=----=XX->ooXXXX88XX#=55XX83oo99999ooo51XXXX88888XXX884>X ..       X$-oXXXXXXXXXXXXX$=ooXX        X@@@",
"XX  X=X XXXXXXXXX  ..... ==---oXo->ooXXXX88XX#=55XX88oo9339oooo51XXXX8888XX X88->X ..        $-oXXXXXXXXXXXXX$=ooXXX       X@@@",
"XX . XXXXXXXXXXXXX    .. XX->oXXo->oooXXX88XX==85XXXooo3883ooXXXXXoXX88XX  XXXX=>XX    ..... X-oXXXX       XX$#oXooXXXXXXXXX@@@",
"XX .  XXXXXXXXXXXXX    .. X-=XXXX=oooooXX88Xo-=88X XXXo8888ooXXXXooXX85X  XXX  o>oXX   ..... X-oXXX         XX#XXoooXXXXXXX$@@@",
"XX   XXXXXXXXXXXXXXX     Xo-=XXXXXXXXXXoo88Xo-438XX11 X1588ooooooXXXX51X 2215X XoooXX  ..... $-oXX  .......  XXXXoooooooooo####",
"XXX XXXXXXXXXXXXXXXXX    XX#XXXXXXXXXXXo388Xo;499oX12.X2188ooooooXXXX12..2221X XX>;oX  .... X$-oXX  ........  XXXXooooooooo=###",
"XXXXX       XXX XXXXXX   .    ..  XXXXXXX88Xo;499oooX X1188ooooooXXXX12..2222XXXX>;oX ..  XXX=->=#$+: .......    XXoooooooo=#==",
"XXXX         X   XXXXX  .........  XXXXXX88Xo;49eooooXX5588ooooooXX X12..2221XXXXo>XX .  XXXX=--=####X.......     XXoooooooo==-",
"XXX  . +++X.   .  XXX  ............. XX X88Xo;4eeoooooXo339ooooXXXX X22X XXXXX XXXXXXX XX  X==####@@++++: ..   ..  XXooooooo---",
"XXX  .%+@@+    ..  X  ..........  .. X  X58Xo;4eeoooooooo99ooooXXXX X12X XXXX  XXXXXXXXXX  X=####@@@@####X..   ...  XXooooo>---",
"XXX X++####*X    XX   .....+++++**X    . XXXo;4eeoooooooo99oooXX   XXXXXXXXXXXXXXXoXXXXXX   X$##@####$X##X...  ....  XXoooo>;;;",
"XX  X++####=X    X    ....X+@@##==$    .. XXo;4e9oooooooo99ooXX    XXXXXXXXXXXXXXooXXXXXX  ..+#@@###=oX==X ... .....  XXoooo;;;",
"XX .X#$XXX$=$XXXX  ......+++@@##==$XXX   XXoo;4388888888888oXXXXXXXXXX XXXXXXXX55ooXXXXX  ..0%@@@##=-oo>=X ....... ..  XXXXo;;;",
"XX .X#X   X#$XXX  ......X+@@@@##==#XXXX  XXoo;4888888855558XXXXXXXXXX  XXXXXXXX11ooXXXX  ..O0%+++#==>ooo=X ......  ..  XXXXo;44",
"XX .X#X  .X#X    ....+++++@####====XXXXXXXXoo;=55===8122221111188XXXX      XXXXXXXXXXXX  ..O0%#+X$-=ooooXXX ....  X   XX XXo;to",
"XX .X#X  .X#X.. ....X++++++#####=-=XXXXXXXXoo==11=##=122222222258XXXX      XXXXXXXXXXXX  ..O0+# .X-oXooXXXX  ... XXX XX   Xo4>o",
"XX  X#X   X=X   ....X++X+++XXX$==-,XX XXXXXoo8122@##@@@@@+222222188XX  ....   XXXXXXXX  .X%.0+# .X-ooooXXX  .... XXXXX  .  o4>o",
"XXX X=X  XX#X   ....X#X  ++XXXX#=;,XX  XXXXo81222+++@####@+22222258XX  ....    XXXXXX  ..++.0X#X.X-ooooXXX  ....  XXX  ... o4>o",
"XXXXX=X        .....X#$    XXXXX=;=X .  XXX888512++++@###@+X222222188X ....  .. XXXX  .X+++..X=X XooooXXXX$*+.O..      ... o4>o",
"XXXXo-X ..... ..... X#$X . XXXXXX=XX ..  XX88==12+<<++@##@+ .22222258X ....  ..  XX  ..+@@+ .X=X XXooXXXX=-##.00..     ... X;oo",
"XXXXo-X ..... ..... XXX   XXX     XXX..  XX88==12+<+++@@@@+  ...X+@@@1X.......   XX  X++@@+ .X=X XXXXo====##++....  .   .  XoXX",
"oXXXo-X .....  ....  X . XXXX ..OO >X .  XX88==11+++++@@@@+X 0O..+#++22..  ..    XX X+@@@@+X *=X XXXX=---##@+++X.. ...      XXX",
"ooXXo;X   .. X  ...  XX XXX   .O..X>$  XX8855@@11++++@@@@@++X.OO..X+#@+X.......    X++@@@@++++#XXX====####@++@+X   ...    .  X,",
"oooXo;o      XX  ..  XXXXXX   .O. X>o  XX8511++11@@@@##@@@@@+ .OO..:###X ..  ..    +@@@@@@@@@@+XX$===####@+++##X   ...   ... X;",
"oooXo;oXXXXXXXXX   XXXXXX XX   . XXX .  XX8@+@@@=##@@###@@@@++X.OO..X###X        . +@@@@########+XXXX+@@@++@##=XXXX      ... X;",
"oooXo;oXXXXXXXXXX  XXXXXX  XX   X-$X ..  XX+++@####@#####@@@@@+ .OO. +#==X       ..+@@@#########+ ...++++++##=-oXXX      ... X;",
"ooooo;ooXXXXXXXXXXX   XXXXXXXXXXo;,X    XXX ++@######===######+ .... +#==XXXXXX  X++@@###=ooXXXXX .. :@##$X##=-oXX  ...  ... X;",
"oooo>4>ooXXXXXXXXXX   XXXXXXXoooo;,XX XXXX   +@######===#######X ... +#=>XXXXXX  +@@+####ooXXXXXX    *#=-oX$#=-oX  ..... ... X;",
"oooo>4>oooooooXXXXXXXXXXXX  Xoooo;,XXXXo#$++++@@###===#=###===#$++X. +#=-ooXXXXXX+@@#+X##oXXXXXX  .. :#=-XXX#=-X  ..... X . XXo",
"ooooo4>oooooooXXXXXXXXXXX   Xoooo;>XXXo=#@@@@@@@@##==###===----##@+  +#=-ooXXXXXX#@##X $=XXXXXXX  .. +#==X X#=-X ....  XXX XXXX",
"oooooooooooXXXXXXXXXXXXXXXXXXXXXo;;>o==###########==###=-------==#+++###=>ooXXXXX##+   $=oXo=$$*XXXXX##+X . X#-X... XX*$=XXXXXo",
"oooooooooooXXXXXXXXXXXXXXXXXXXXXo;;;;-#@##===-=#=-=####---------=########=-ooXXXX=# .. $-oX=-####=-;;=#X.... X-X...X###=-oXXXo;",
"ooooo>oooXXXXXX               XXo;;;-#####=--;;==-=##==-->oooooXXXX#######=>>ooXX==X.. $-XX$#####=-;;=#X...  X-X. X#####===XXo;",
"oooo>4oooXXXXX    ...........  Xo---#@##==-;;4;---=##----ooXXXX   X#==#####=-;;oX>=X . X=X *##===--;;=#X..   X-X X#######=-oXo;",
"oooooooXXXX   .... %++++++++ .  Xo,-=###=-->>4;;;>>==--->oX       X==========--oo>>X   $=X. X#=>o--;;=#X  XXXo-X. XXX####=-oXXo",
"oooooooXXX  ......X+@@@@@@@@+..  Xo-=##==;>oo4;;;oo----;>X ..    XX>-------==--oo>;oX  $= .. $-oo>-;;=#X XXXXo;X.    X====-oXXX",
"oooooooXX  ..OOO.X++@#######++ . Xo-=##-->ooo4;;;oo----;,X ...... X=;;;;;;;==--oo>;oXXX== .. $-oo>;;;=XXX XXXo;X. X  X===--oXXX",
"oooooooXX ..OOOO.##+#########@+. Xo-=#=;>oooot4;;oo----;,X ....... =;;;;44;-=--oX,;ooXX,> .  $-oo>;;;oXXX  XXo;X XXX X-----oXXX",
"oooooooXX ..OOOO.+#XXXXXXX$###+  Xo-=#=;>ooooo>;;ooooo,;,X  ...... =;;;;4>>----oXXoXXoo>>X.  $;oo>;;-oXXX . Xo;oXXXXX$-----oXXX",
"oooooooXX ..OOOO.+$XX     X##=$  Xo-=#=->oooooo;>ooooXX>>XX  ..... ,;;;4too>-;;oXXXXXoo>>X   $;oo>---oXXX . Xo;oXXXXXo-----oXXX",
"oooooXXXX ..OO..X#XX .   . X$#$  Xo;=XXXXXXXXXX>>oXXXXX>>XX  ..... ,4;4>ooo>;;;oXXXXXoo>-XXXX,;oX====>oXXX XXo;oXX XXXo=====$XX",
"oooooXXXX ..0O.XX=X  .. ... X#$  Xo;o ...XXX . >>XX..XX>>XX  ..   X,44tooXX>;;;oXXXXXoo>;oXXXo;oX###=-;oXXXXXo;oX  XXXX$#####$X",
"oooooXXXX ...XX$=-=XXX .....X=$   X;oX ..  XX X>>XX  XX>,X X    XXXo>4;oXXX,;;toXXXXooo>;oXXXXoXX$#$X#==oXXXXo;o XXXXX$++@####$",
"oooooXXXX ..X###=;-=##X..  .X=$   X;>X ....XXXo;>XXXXXo>,X XX  XXoooot;oX X=;;tooX XoXX,;oXXXXXXX$#X X#-;oXXXo;X XXXX$#+<+@@@##",
"oooooXX$X:+%+##XXXXXXX .   .X=$  .X;>XX    XXXo;;,oooo,;,X   XXXXXooot>XXXX,;;tooXXXXXX,-X  XXX  *#X. X=;>oXXo;oXXXX$++++@###+X",
"ooooXXX=#@@@@@: ...         X-$  .X;oXXXXXXXXXo;;;;;;;;;,X   XXXXXXoot>X XX>;;tooXXXXXX,>X   XX .X#X.  o;;;oXo;oXXX$#+<+@####X.",
"oXXXXXX#@@@###+: .   ... Xoo=->oXX$;oXXXX  XXo>----------$XXoooooooo>4;=XXX>;;tooXXXXXXXX ...    $-$XXo>;;;>o;;>ooo#@+<+#$X#=#X",
"oXXXX X+@+@####@:   ....X-;;;;;;;;;;,XXX . Xo;;------------;;;;;;;;;;;;;>XX>;;tooX XX  ......  XXo;;;;;;;;;;;;;;;;;#+<<+#X X;;;",
">oooX.X++XXXXX+#:    . X$-;;;;;;;;;;-=ooXXXo,;-=#XX#=======-------;;;;;;;,,;;;;oX .    ......XXo=----------=======#@+++#=X. X,;",
";;;;X.X+$XX ..X#X. XX X;;----------------;;;;;-#+  +############=------;;;;;;;>X ..    ..... X-----===############++<+#=-X.. X;",
";;;;=X$#XX .  X=#XXooo=--===#####======--------=#:++@@++++@######========----;-$XXXXXXXXXXXXX=-----==#######@@@@@@@++#=-;=XXX,;",
";;;;;;=#X .. Xo--;;;;;;-=####@@@@######---------=##@+++<<+++@@@###########===--------;;;;;;;;------=###@@@@@@@@@@@@##=-;;;;;;;;",
"*$$,;;-==XXXXo>-;;;;;;;;-====###==--*#:%%%::*$-;--==##########===========-----;;;;;;;;$$*******$$-----==###########==-;;;;,$$*:",
"y:*$,;;;;;;;;;;;;;;;;;;;;;;;;;;;;;;$*:%uuuuy:*$;;;;;;;;;;;;;;;;;;;;;;;;;;;;;;;;;;;;;;$$*:%%%%::*$;;;;;;;;;;;;;;;;;;;;;;;;,$*:yu"
};
