/* XPM */
static char *cb3d25fb577846dabc7685b8ed6329daaf1VblJExKXQKls6[] = {
/* columns rows colors chars-per-pixel */
"130 130 42 1 ",
"  c black",
". c #2F2F2F",
"X c gray23",
"o c gray34",
"O c #4B4B4B",
"+ c #434343",
"@ c gray20",
"# c #630000",
"$ c #4B0000",
"% c #570000",
"& c #430000",
"* c #830000",
"= c #770000",
"- c #232323",
"; c #676767",
": c #9F0000",
"> c #2B0000",
", c #370000",
"< c #777700",
"1 c #9F9F00",
"2 c #C7C700",
"3 c #AFAF00",
"4 c #878700",
"5 c #E3E300",
"6 c #1F0000",
"7 c #5F5F00",
"8 c yellow",
"9 c gray12",
"0 c gray45",
"q c gray50",
"w c #5B5B5B",
"e c #434300",
"r c #43331B",
"t c #3B2F17",
"y c #FFFF57",
"u c #130000",
"i c #6F0000",
"p c #8F0000",
"a c #430043",
"s c #2B0043",
"d c #000001",
"f c white",
/* pixels */
" ...............................................................................................................................X ",
" XXXXXXXXXXXXXXXXXXXXXXXXXXXXXXXXXXXXXXXXXXXXXXXXXXXXXXXXXXXXXXXXXXXXXXXXXXXXXXXXXXXXXXXXXXXXXXXXXXXXXX......XXXXXXXXXXXXXXXXXXXX ",
" ooXXooOOOOOOOOOOooOOOOOOOOOOOOooOOXXOOOOOOOOOOOOOOooooooooooooOOOOOOOOOOOOOO+++OOOOOOOOOOOOOOOOOO++++XX@@@@XXOOOooooOOOOOOOOOOXX ",
" ooXXooOOOOOOOOOOooOOOOOOOOOOOOooOOXXOOOOOOOOOOOOOOooooooooooooOOOOOOOOOOOOOOOOOOooooooooooooooooOOOOOOXX..XXOOoooooooOOOOOOOOOXX ",
" #$%&#&##$#$#$$#$%#&#&#&%#OOOOOooO*#$%#$#$#$#$$#$%&#&##%$#$$#&%%#%%$#$%%%%XOOOOOoO*#$%#$#&&&&&&&&&&$&$&$&$&&&&&$&&$&$$$%&#$#$%&#& ",
" =#*##*##*#**##=#*##*#=#*#$-OOOo;::*==*#**#**##=#*##*##*#*=#####*%*#*#*##&>XXOOoO::*==*#**#**##=#*##*##*#*==#*######**#*#=#=#*##* ",
" #&#,#$###%##%&#&##,#$,%%&,-.OOo;:##%%#&##%##%&#&#,#$#####%&#%%%#&#&##%$#&>.XOooX:##%%#&##%##%&#&#,#$#####%#&%%&#%%%##&#,#&#&#,#$ ",
" %&%,%,#%%#%#&&%&%#%#,#,#,>-.OOo;:*#&#%&#%#%#&&%&%,%,#%#%#&&#,$#%&#%#%#$#&>.XOOoX:*#&#%&#%#%#&&%&%,%,#%#%#&%,#%&#,$#%%&%,%&%&%&%& ",
" &%#%,#%%&#&#%&&%#%,#&,%$,>-.OOo;**%&#&%$&#&#%&&%#%,#%%#&#%#%%,%#>#,%&%%$&>.XOOoO**%&#&%$&#&#%&&%#%,#%%#&#%%&#,#%%,%#&%$%&%&%#&&# ",
" %&#,#$##%%##%#%&##%%,%,#,>-.Oo;;**#%#%&#%%##%#%&#,#$##%##%&#,$#,##%###$%&>.XOooO**#%#%&#%%##%#%&#,#$##%##%#,%%&#,$#,#&$,%&%&$&&$ ",
" #&%,#,##&#&#&&#&%#,#,#,%,>-.Oo;;*##&%#&#&#&#&&#&%,#,##%&#&&#,$%#%%&#&%$#&>.XOooO*##&%#&#&#&#&&#&%,#,##%&#&#,#,&#,$%#&&%%#&#&%&$& ",
" %&#,%#%%#%##%&%&#%,#,%,#,>-.Oo;;*##%%#&##%##%&%&#,%#%%#%#%&$%,&#>#$#%#$#&>.XOooO*##%%#&##%##%&%&#,%#%%#%#%%&#%&$%,&##&&%%&%&$,%# ",
" &#&%,#,%#%##%#&#&,#,%,%&,>-.Oo;;*##%%#&##%##%#&#&%,#,%#%#&&%,$#%&#%#%#$#&>.XOooO*##%%#&##%##%#&#&%,#,%#%#&%,#%&%,$#%##&%$%&$%>&# ",
" &%&#,%##%#%#&%&%&$%,%$%&,>-.Oo;;*##&#%&#%#%#&%&%&#<<11222222223311332222222222<<*##&#%&#%#%#&%&%&#,%##%&#%%&#,#$%,%#%%&%$%&%%&&% ",
" %#&#%%,%&#&#%%%#&&%#>#,%,>-.+Oo;*#%&#&%$&#&#%%%#&#<<11222222223311332222222222<<*#%&#&%$&#&#%%%#&#%%,%%##%#,%%&%,$#,&#&#$#&$%&&% ",
" ,%#&#,%&%%##%#,%#&#,%#%$,>-.+Oo;**#%#%&#%%##%<<411<<44332222331155555555555555331111#%&#%%##%#,%#&#,%&#&#&#,#,&#,$%##%&#$#%#%>&% ",
" $#&&#,%%&#&#&#$#&&%#%%&$,>-.++o;**#&%#&#&#&#<34111<<44332222331155555555555555331111%#&#&#&#&#$#&&#,%%#%#%%$#%&$%,&#&#&#$#&$%>&% ",
" %##&%%,&%#%#%%%##,&$>$6>,>-.X+o;**#&#&%$%#<<<133444<<<<<333344222222222222<<77<<1114<<<<%#%#%%%##&%%,&##$$##$&##%&##%#&#$#&&%>&% ",
" &&&&&&&&&&&&&&&&$6,6>6,66>-.X+OO#$&&&&&&&&<<1433344<1<<<333344222222222222<<7<<<114444<<&&&&&&&&&&&&&&&&&&&&&&&&&&&&&$6>>>>66>>> ",
" >>>>>>>>&&&&&&&&&6,>&,,>6--.X+OOX&>>>><<<431121137432544<<3344333333335588225344<713334414<<>>>>>>>>>>>>>>>>>>>>>>>>>,>>>,>,>>>, ",
" --------------------99----..X+OoOOOXX.4<1411113144215544<<3344333333335588225544<<223334<444-----------------------------------. ",
" @@@@@@@@@@@@@@@@@@@@......@@X+Oo;0qq<<<<441122233555233344<<11111111118811222234332222233444<7XXXXXXX@@@@@@@.......@@XX@@@@@@... ",
" oO+XXXXXXX++++++++X@@@@@@@@X++++o;00<7<4231<23322251321144<<1111111111881122221353258822134477;wooOOOOOOOO++X....XXXOooOOOOOoooo ",
" ooXXXXXXXXOOOOOOOOXXXXXXXXXX+OXXOO<<<7<1<11325255522344111<<444444444477114444222221228233244<<7;wooooOOOO++X...XOXOo;;oOOOOoooo ",
" #&#&#&%%&%##$%&#$#$%&#&#&#&#&%#XOO447443133115528533111111<<444444444477114<41325211254222244<7<&#&#&#&%#XOO+X..O*#$%#$#$#$#$$#$ ",
" ##*#=#*##*==#*#=#=#*##*##*#=#*#$<7<443131155522211113122ee<<<<<<<<<<<<772222<4111355535553324441<7#*#=#*#$OO++X.::*==*#**#**##=# ",
" #,#$,&%$%%$#&#,#&#&#,#$#,#$,%%&,47<3343133322222114<1353ee<<<<<<<<<<<<7722221442883258851212134477,#$,%%&,XXOOX.:##%%#&##%##%&#& ",
" #%#,#,#$,#>#&%,%&%&%&%&#%#,#,#4344<43442255528311<<4314<ee7777777777771177<43132882258885212234<4477,%,#,>XXOOX.:*#&#%&#%#%#&&%& ",
" %,#&,&&$%%&%%$%&%&%#&&#%,#&,%$33134<431152222214<4144444ee7777777777771177<4223222233288521113343417&%%$,>-XOOX.**%&#&%$&#&#%&&% ",
" #%%,%,#%,#,%&$,%&%&$&&$#%%,%<4133<411141331324<144124<7<eeeeeeeeeeeeee1111773134<713325885231234144477,#,>-XOOXX**#%#%&#%%##%#%& ",
" #,#,#,%$,%,#&%%#&#&%&$&#,#,#<431444<1114323131<11<ee41e7eeeeeeeeeeeeee11117<<<441444331225531131413477,%,>-.++XX*##&%#&#&#&#&&#& ",
" %,%,%,#$,#,%&&%%&%&$,%#%,#7<4<<47711221114344444<4<77e77eeeeeeeeeeeeee444477e7<<<44<113335252232<<4<<<7#,>-.+oOX*##%%#&##%##%&%& ",
" ,&%,#%&%%%,%#&%$%&$%>&#,#,41447<44332211<414414<777e7eeeeeeeeeeeeeeeee444477<7<7<<134341212322111<1<<<77,>-.XoOO*##%%#&##%##%#&# ",
" #%%,$%&#%%,%%&%$%&%%&&%$%311444<4<233314141444<7ee<e<eeeee------ee....eeeee7e7e777<<31<1322555222141<741<>-.XoOO*##&#%&#%#%#&%&% ",
" ,%%>#,%&,%>%#&%$#&$%&&%&1143444<132323121<14<7<4e7eee<ee--------ee....eeeee747ee77<7<24<<233222223<417414>-.XooO*#%&#&%$&#&#%%%# ",
" %#%%#&##%#,%%&%$#%#%&&%&444<44141322117411<77<7<eeeeee---------eee7......eee7777<e<77<41341135133522771144-.XooO**#%#%&#%%##%#,% ",
" %&#&%&#&&#$%#&%$#&$%%&%&14<<7713132214<44447<777e7ee----------eeeee7.......ree77<77e<7411<<<223221334<1144-.+o;o**#&%#&#&#&#&#$# ",
" ,&#&#&#%$#$%#&%$#&&%%&71ee44<12413<<221<4147<<4<e<e----------eeeeeee7..........eeeee7<7<4<<42232131341333eee+o;o**#&#&%$%#%#%%$# ",
" &&&&&&&&,$>,$6>>>>66>>717<<4<13331<4221<44<e7eee7e----------eeeeeeeee7..........e<7e7<e<<414343272214433377e@o;o#$%&%&$&%$&%&%&& ",
" >>>>>>>>,>,,,>>>,>,>>>11441312114<1341e77<7eee7<-----------eeeeeeeeeeee...XX......77e<<<<144144352313255377<@o;oX#&&>>&>>>>>>&>> ",
" ......--......------..11<735144144143177<<7ee<7e----------ee77777777eee...XX......e77<<<441<1113551334123e7<@@@oOX.------------- ",
" .@@@@@..@@@@@@......@114<42334133112227<44<7e<t----------77777<<<<7777....XXXX.....r7<<<41113241415<4<<141444<@@O@XXX..X.XX@XOX. ",
" oOOO+X@@@X++O+XX++XX+11411324411441255<4477<7e----------777<<<<<<<<<7....XXXXXX.....e7<7<44452223151441114344<-@@@ooO+++ooOOOOOO ",
" ooooOOXXXXOOooXXooXX444414112133443132777777t----------47<<<4<444<<7....XXOOOOXX.....e77<444341312521144<14334--@@oooO++ooOOOOOO ",
" ooo*#$%#$#$#$#$$#$%&443341441442143311<77<<e----------7<<<444444447....XOoooooOXX.....e7<<4<1241122234<7<13434$#$%&#&#&#&#&%#XOO ",
" oo::*==*#**#**##=#*<444<122213<43241471177ee---------<<<4441141417....XOoooyyooOXX.....e7<4411432325112442<441#=#*##*##*#=#*#$XO ",
" oo:##%%#&##%##%&#&#<447<122211411244474177----------<444441111117.....Xooo833yooOX.....e7<43441122221123324444&#&#,#$#,#$,%%&,.X ",
" oo:*#&#%&#%#%#&&%&%4<14<151431<<11227741<<---------<444111111117.....XOoo834438ooOX.....e74344213232521132<<444&&%&%&#%#,#,#,>.. ",
" XX**%&#&%$&#&#%&&%44<1<4152433<<1131<<41<---------<441111133317.....XXoo83114435oOXX....e77444331112522111741417&$>>#%,#&,%$,>-. ",
" XX**#%#%&#%%##%#%&14<4<43321434<1213<<77---------<441111333317......XOo5333311432OOXX....e7<77111<32553144444114>,>>$#%%,%,#,>-. ",
" OO*##&%#&#&#&#&&#&11<<773314434423117777--------<<4411333333837....XXO533333331432OXX....e7<<722<<123211<4444141>&>,&#,#,#,%,>-. ",
" OO*##%%#&##%##%&%&14447777<<<<121244<<7<--------7<41333333333837...Xo53333333331432XXX....e<<4<<441411117<<41444>,>&#%,#,%,#,>-. ",
" OO*##%%#&##%##%#&41444447<44<13122<7<4<----------7<13333333333837..X2333333333331431XXX...e<11<71111111174474444,&u>#,#,%,%&,>-. ",
" OO*##&#%&#%#%#&%&444<44477<4<1334711447-------..--7<333333333338377233333333333311434XX...e71441<4<11131e74<<134&&>u&,&>%$%&,>-. ",
" oo*#%&#&%$&#&#%%%44411<<44<<7444<711437-------...--7<33333333333832333333333333331141<XX..e7134477<1<12477<7<134,&>u&>&$>#,%,>-. ",
" oo**#%#%&#%%##%#,4444<<<<<1224<<<44431-----<1...X.--7<33333333333233333333333333331144<X....1114<<71222147<44413$&uu&>$>%#%$,>-. ",
" OO**#&%#&#&#&#&#$4117<<77<525374343313----<121..XX.--7<333333333333333333377333333314447....134134413211<<<4<411,&uu&>&$%%&$,>-. ",
" OO**#&#&%$%#%#%%%#447<<7112544<7<7411<---<11322XXXX.--7<333333333333333337--73333331144<7...7<1147<<231241<77744>&uu&>>,>$6>,>-. ",
" OO#$&&&&&&&&&&&&&&44777<1455444<774<<7--<1133322XXXX.--7<3333333333333337X@--7333331114<7e..77<<44711223<4<<<<4466>>>6,6>6,66>-. ",
" OOX&&&&&&&&&&&&&&<77<7221221<<4322<444<<113333322XXXX.--7<33333333333337...@--733333144<<7ee<4443251414411324<<7,>>>,6,>&,,>6--. ",
" OOO.-------------<<<44231222<<1225<<44<<1133333322XXXX.--7<3333333333357....@--73333114<<7e7<44<352241443333<777---------------. ",
" OOOOX............<7<44135232<121347744.-73333333328XXXX.--1<3333333333357...X@--7333114<<7..44<7442122<4141144<<----............ ",
" oooooO+++++XXXXXX<77<12351444112317<14..-73333333328XXXX.-2133333333333351..XX@--733114<7...4444<122<11<<4411<44--@XOoOOOOOOOooo ",
" ooooooooooOOOOXXOO<7e44153121414<77711...-73333333328XXXX833333333333333183.XXX@--7314<7....34<7774132111414<<77--@XOoOOOOOOOooo ",
" ##$%&#$#$%&#&#&#&#<<e<413322441147<741....-73333333328XX83333333333333333183.XXX@--71<7.....13474<4321131<144117$&&$&,$,#&#&$#&% ",
" ==#*#=#=#*##*##*#=1<77774444412253<4<<X....-733333333288333333333<33333333183.XXX@--77XXXX74111<34232144144<4414i$i$i$i#=#*##### ",
" $#&#,#&#&#,#$#,#$,1<<777<733415112<<<<7X....-733333333233333333377<33333333183.XXX@-.XXXOO74444<41333244<4144<<<$&&$$$$&#&%%&#%% ",
" >#&%,%&%&%&%&#%#,#14<<<77423551143<711<OX....-733333333333333337--7<33333333183.XXXXXXOOOo44147<21<1333<41434<4<&,$&$&$>%,#%&#,$ ",
" &%%$%&%&%#&&#%,#&,444<<<4<145311447711<OOX....-7333333333333337----7<33333333183.XXXXOOOOo4134741144114<1<1433<<$,$&$>$&%&#,#%%, ",
" ,%&$,%&%&$&&$#%%,%77<<<43141411<44777477OOX....-73333333333337------1<33333333153.XXOOOoo<7<7<<714314444<4314347&$&$&$$&#,%%&#,$ ",
" ,#&%%#&#&%&$&#,#,#77<<44344114<41<77<<77OOOX....-733333333337---..--2433333333314.XXOOOoo<<7<4<<111244<7<<413447$,&$&>$>#,#,&#,$ ",
" ,%&&%%&%&$,%#%,#,%,e7<<4443551442544<<447OOOX....-7333333337---....2433333333317-..XOOoo<<<44<<<122111<<4411147,$,$&$&$&%&#%&$%, ",
" ,%#&%$%&$%>&#,#,%,%e74<4<43523<<35<4<4447OOOOX....-73333337---....2133333333317--.XXOOoo<<<4<444232441434<44437%,$,&$&$>%,#%&%,$ ",
" ,%%&%$%&%%&&%$%,%$%eee74<41133334<4122774OOOOOX....-733337---....2133333333317--..XOOOo<<<<<3314343244444477117%,$&$&>$&%&#,#$%, ",
" >%#&%$#&$%&&%&%#>#,eee774<412311<441227744OOOOOX....-7337---....5133333333317--..XXOOoo<1477314141224324<471317,&&,&&$$&#,%%&%,$ ",
" ,%%&%$#%#%&&%&#,%#%$eee<<42333334<22117711<OOOOOX....-77--.....5133333333317--..XXOOoo<<134711121211232474<13<#&$,&>$>$>#,#,&#,$ ",
" $%#&%$#&$%%&%&%#%%&$eeee74221112442214<7444OOOOOOX....---.....5133333333317--..XXOOooo<72247142312112223774<3<&>&,$&#%#%%$#%&$%, ",
" $%#&%$#&&%%&%,&$>$6>e74e7<<11<11444147e77744OOOOOOX..........5133333333317--..XXOOoo<<7774<<ee44<<111444<e74<7$>$,$>##$$##$&##%& ",
" >,$6>>>>66>>>6,6>6,6eeee7<1131411141147777444OOOOOOX........2133333333317--..XXOOoo<<<1414e<47<<<<<41144<ee7<7>>>>>>&&&&&&&&&&&& ",
" ,,,>>>,>,>>>,6,>&,,>6ee7e<41231<<<4477<<<<<<1OOOOOOOX......3133333333317--..XXOOoo<4447447<1444<<414524<e777e>uuuuuu>>>>>>>>>>>> ",
" ......................<7e441523<<<117<44<<7<11OOOOOOOX.....113333333317--..XXOOoo<<<41<777<<1411<44122477<<7-------------------- ",
" XXXXXXXXXXXXXXXXXXXXXX7e744711447e334<41325247<7OOOOOOX....-7133333317--..XXOOOo<<747<3443<43113<7444447<<7e-----............... ",
" ooOOoOXXOOXXXXOOOOXXXXe7<<774444e7131474325247<7<OOOOOOX...--71333317--..XXOOOo<<<74471444<<442244<<<7<47<ee--@XOOOOOOOOoOXXOOXX ",
" OOOOOXXXXXXXXXXOOOXXXXOeee44<4447441213222221<<77<3OOooOX...--713317--..XXOO<<447<<4412133415544<4<<<7<<7ee---@XOoOOOoOOoOXOooOX ",
" OOX*#$%#$#$#$#$$#$%&#&#&7711<44<74412234121444444443OoooOX...--7117--..XXO<<44<4<<<<112121115244<7<<<7<<e7$>$>,$&%%#%%$#$%%%%XOO ",
" OO::*==*#**#**##=#*##*##*7443414<4141144124<223244447<3311....--77--..4433222234<<4<411<1144<<11<4<<411<e=#$i$$$###*%*#=####&>OO ",
" OX:##%%#&##%##%&#&#,#$#,#$173341<<<44433414<<12377<<<<3311.....-77-.<<4433222213774<44<423<<<4114<1<441<#%$>&&>$%%%#&#&#####&>XO ",
" oX:*#&#%&#%#%#&&%&%,%,#%#,e<74144<44131441141422134144<432222222442222222222444<22132412414<<344<<1<41<7$>>>$&>$,$#%&#%#%###&>.X ",
" OX**%&#&%$&#&#%&&%#%,#%,#&e<77e4<711434<112311111144<4<43222222244222222222244<1524443141411<44<77<<1<7e$&>>$>$&%,%#>#,%%%%#&>.X ",
" OX**#%#%&#%%##%#%&#,#$#%%,%e77777<<4311414231211111135<<3133224455555555554411114414434<41411477777747&$$&,>&&>$,$#,##%###%#&>-X ",
" OX*##&%#&#&#&#&&#&%,#,#,#,#,e77e<4e4224441112212112135<<1133224455555555554411134<3214<<<43422<7<<77<e&>$>$,#,&#,$%#%%&#%%%#&>-X ",
" OX*##%%#&##%##%&%&#,%#%,%,%,#e<eee4<<<441441422222232244<<3344222222222222443355111444443144<4<74477$&$&$&&&#%&$%,&#>#$#%#%#&>-X ",
" XX*##%%#&##%##%#&#&%,#,&%,#%&%77e<7<<7444144435122112344<<334422222222222244333311<1413<34<4<7447<ee,&$&$>&,#%&%,$#%&#%#%#%#&>-X ",
" XX*##&#%&#%#%#&%&%&#,%#%%,$%&#%eee74744<<244144444323311<<334433333333333344221344321414<4<4777777,$,$&>$&&&#,#$%,%#>#,%&%%%&>-X ",
" oX*#%&#&%$&#&#%%%#&#%%,%%>#,%&,%<ee777<74<43443441223244<<3344333333333333442233<<4141433177<474<e&&,&&$$&$,%%&%,$#,##%###%%&>-X ",
" OX**#%#%&#%%##%#,%#&#,%#%%#&##%#,e<e<7<77<7<47214144<<<44<4411111111111111<<444<43434<77<7<74<47$$$,&>$>$>$,#,&#,$%#%%&#&%$#&>-X ",
" XX*##&%#&#&#&#&#$#&&#,%&#&%&#&&#,%e<7eee77<7<77474334444<<4411111111111111<<444431<2<7<77<47777e$>&,$&$&#%%$#%&%%,&#>#$#%#$#&>-X ",
" XX*##&#&%$%#%#%%%##&%%,&#&#&#%$#%,&#ee7e<e<7<<777244447<<<44111111111111117777<777<<<e777777ee#&$&$,$>&&%$%%%&%%%&%%$$%#&=%#&>-X ",
" OX##&&&&&&&&&&&&&&&&&&&&&&&&&&,$&&&&&&77ee<<7e<477<747777<4411111111111111777e7<<77777e<e7<7&&&&>>>>>>&&&&&&&&&&&&&&&&&&&&&&&>-X ",
" OX.&>>>>>>>>>>>>>>>>>>>>>>>>>>,>>>>>>>>eeeeee77e<747<7<ee7444444444444444477777eee7<eeee<7>>>>>>>>>>>>>>>>>>>>>>>>>>>>>>>>>>>--X ",
" XXXX....................XXXXXX..--------e<e77ee7e4<e77eee744444444444444447777eeeeee7ee7ee------------------------------------.X ",
" XXXXXXX..XXXXXXXXXXXXXXXXXXXXXXXXXXO;@@--;ee77<e77e77ee7e7<44444444444444<77ee77ee7<ee.-----...-....--.........-----..XXXXXXXXXO ",
" OOXXXXXXX++OOOO++++++OOowwwwoOOOOOX+oo;@@--+7ee7e7e777eee7<<444444444444<<77ee7e777eee-----@@@@..XXX@X++O+++X@@.....@@XX++OOoooo ",
" OOXXXOOXOOOOooOOOOOOOOoo;;;;ooOOooXXoXo@@@---+eeee<e7<77e777<<<<<<<<<<<<7777eee77e@-----@@@....@@O+XXOOOOOOOXX@@....@@XXOOOOoooo ",
" #$#$$#$%&#&%%&%##$%=$#$%&#&#&#&#&%#OOXo;OX@*#$%#eeeeeee7e7777777777777777777eeeeee>$>$>$>$>&$#@@OOOXX*#$%#$#$#$#$$#$%&#&#&#&#&%% ",
" #**##=#*###*##*==#*=#=#*##*##*#=#*#$OXOoOX:p#$$#,##,##,,eeeeeeeeeeeeeeeeee$,#$,$,#,,#,,#,$,#,,@+OOOX::*==*#**#**##=#*##*##*#=#*# ",
" %##%&#&#,#&%$%%$#&##&#&#,#$#,#$,%%&,-XOoOX:#$&&$>$$&$$&>7eeeeeeeeeeeeeeeee$>$$>$>$>$,$>$,>&&>>@+OOOX:##%%#&##%##%&#&#,#$#,#$,&%$ ",
" #%#&&%&%,%,#$,#>#&%#&%&%&%&#%#,#,#,>-.XoOX:*#&#%&#&$&$>>&>&>&$u$&$>$>$,>$u$>&$>&>&>&>$&$>$>$>u-XOOOX:*#&#%&#%#%#&&%&%,%,#%#,#,#$ ",
" #&#%&&%#%,&&$%%&%%$&%&%#&&#%,#&,%$,>-.XoOX**%&#&%$>$>$&>>&$&>&,&>$>>>>,&&>&&,>&>&$>>$&>$>>&,>u-.+OOX**%&#&%$&#&#%&&%#%,#%,#&,&&$ ",
" %##%#%&#,#,#$,#>#&%#&%&%&%&#%#,#,#,>-.XOOX**#%#%&#&&$$&$&>$>$$>$&&>$>$,>$u$>&$>&>&>&>$&$>$>$>u-.+OOX**#%#%&#%%##%#%&#,#$#%%,%,#% ",
" #&#&&#&%,#&&$%%&%%$&%&%#&&#%,#&,%$,>-.OO+X*##&%#&#>$>$>>$>&>$&u$>$>>>>,&&>&&,>&>&$>>$&>$>>&,>u-.+OOX*##&%#&#&#&#&&#&%,#,#,#,#,%$ ",
" %##%&%&#,%,#%,#,%&$#&%&$&&$#%%,%,#,>-.OO+X*##%%#&##%##%&%&#,%#$&>&>&>$&>$>&>,$>&>,>>,$&&>&>$>u-.XOOX*##%%#&##%##%&%&#,%#%,%,%,#$ ",
" #&#&&#&%,#,%$,%,#&%&&#&%&$&#,#,#,%,>-.OO+X*##&%#&#&#&#&&#&%,#%$>>&>$>&,>&>$>&>>$>&>,>$>$>$>&>u-.X+OX*##&%#&#&#&#&&#&%,#,#,#,#%&% ",
" %##%&%&#,%,#$,#,%&&#&%&$,%#%,#,%,#,>-.OO+X*##%%#&##%##%&%&#,%%&$&&>&>$,>$>&>>$>&>,>&$&>$>&>$>u-.X+OX*##%%#&##%##%&%&#,%#%,%,%%&# ",
" %##%#&#&%,%&%%%,%#&#%&$%>&#,#,%,%&,>-.OO+X*##%%#&##%##%#&#&%,%&>&&>$&>&&&>&$>$&>,&u>$>$>&>&>>u-.X+OX*##%%#&##%##%#&#&%,#,&%,#,%& ",
" #%#&%&%&#,%&#%%,%%&&%&%%&&%$%,%$%&,>-.OO+X*##&#%&#%#%#&%&%&#,#,%#%,$%&#%%,%%&&%&%%&&%$%,%$%&,>-.X+OX*##&#%&#%#%#&%&%&#,%#%%,$##& ",
" #&#%%%#&#%,%&,%>%#&##&$%&&%&%#>#,%,>-.OOOX*#%&#&%$&#&#%%%#&#%#,%&#>#,%&,%>%#&##&$%&&%&%#>#,%,>-.X+OX*#%&#&%$&#&#%%%#&#%%,%%>##&# ",
" %##%#,%#&#&##%#,%%&&#%#%&&%&#,%#%$,>-.OOOX**#%#%&#%%##%#,%#&#,%#%%%#&##%#,%%&&#%#%&&%&#,%#%$,>-.X+OX**#%#%&#%%##%#,%#&#,%#%%#%#& ",
" #&#&#$#&&#&#&&#$%#&##&$%%&%&%#%%&$,>-.OOoX**#&%#&#&#&#&#$#&&#,%&#&&%&#&&#$%#&##&$%%&%&%#%%&$,>-.X+OX**#&%#&#&#&#&#$#&&#,%&#&%#&& ",
" #%#%%%##&%&#%$#$%#&$#&&%%&%,&$>$6>,>-.OOoX**#&#&%$%#%#%%%##&%%,&#&&#&#%$#$%#&$#&&%%&%,&$>$6>,>-.X+OX**#&#&%$%#%#%%%##&%%,&#&###& ",
" &&&&&&&&&&&&&,$>,$6>>>66>>>6,6>6,66>-.OOOX#$&&&&&&&&&&&&&&&&&&&&&&&&&&&,$>,$6>>>66>>>6,6>6,66>-.X+OX$$&&&&&&&&&&&&&&&&&&&&&&&$$# ",
" >>>>>>>>>>>>>>>>>>>>,>,>>>,6,>&,,>6--.OOOX.&>>>>>>>>>>>>>>>>>>>>>>>>>>>>>>>>>>,>,>>>,6,>&,,>6>-.X+OXX&>>>>>>>>>>>>>>>>>>>>>>>>>> ",
" -------------------------------------.OOooX..--------------------------------------------------.X+OOXX...----------------------. ",
" ......................................OOooOOX....@......................................@@@@@@@@X+OOOOXX..........----------.... ",
" XXO+XXO+XXXXXX++++++++++OOO+XXX+++++++OooooooOOoOOOOOOooOOOOOOooOOOXXXXOOOOO+XXXXXXXXXXX++OO++XX++ooOOOXXXOoOOOOOOOO+XXXX+OOOOOO ",
" XXOO+OoO++++++OOOOOOOOOOoooO++OOOOOOOOoooooooooooooooooooooooOooOOOOXXOOOOOO++XXXX++XXXX++OO++XX++ooOOOOXXooOOOOOOOO++XX++OOOOOO ",
" oooooooooooooooooooooooooooooooooooooooooooooooooooooooooooooooooooooooooooooooooooooooooooooooooooooooooooooooooooooooooooooooo ",
" oooooooooooooooooooooooooooooooooooooooooooooooooooooooooooooooooooooooooooooooooooooooooooooooooooooooooooooooooooooooooooooooo ",
"                                                                                                                                  ",
" aaaaasddddddddddssaaaassasdddddddddddddsaaaaaaaaaaaassddddddddddddddddddssaaaaaaaassssddddddddddddddddddddddddddssssssssssssssss "
};
