/* XPM */
static char *_305528422f0453ce28798b2eed7aa4emFJs5NcnhE5BR0fD[] = {
/* columns rows colors chars-per-pixel */
"127 127 69 1 ",
"  c #B7B7B7",
". c #C3C3C3",
"X c #DFDFDF",
"o c #EFEFEF",
"O c LightGray",
"+ c gray67",
"@ c #BBBBBB",
"# c gray56",
"$ c #9B9B9B",
"% c gray50",
"& c gray45",
"* c #630000",
"= c #43331B",
"- c #4B3B1B",
"; c #573F1F",
": c #372300",
"> c #4B0000",
", c #5F4323",
"< c #3B2F17",
"1 c #774F2B",
"2 c #8B5B33",
"3 c #A3673F",
"4 c #935F37",
"5 c #6F4B27",
"6 c #83532F",
"7 c #BF7B4B",
"8 c #F3975F",
"9 c #FFA773",
"0 c #DF8B57",
"q c #770000",
"w c #FFBB93",
"e c #FFC7A7",
"r c #FFDBC7",
"t c #FFEBDF",
"y c #FFE3D3",
"u c #FFB383",
"i c #830000",
"p c #FFBF9F",
"a c #FFCFB3",
"s c #FFD7BF",
"d c #2B230F",
"f c #D38353",
"g c #AB6B43",
"h c #8F0000",
"j c #9F633B",
"k c #430000",
"l c #CB7F4F",
"z c #9F0000",
"x c #B77347",
"c c #676767",
"v c #A70000",
"b c #B30000",
"n c #FF9F63",
"m c #B75700",
"M c #EB8F5B",
"N c #BF0000",
"B c #CB0000",
"V c gray23",
"C c #5B5B5B",
"Z c #2F2F2F",
"A c #434343",
"S c #D70000",
"D c #4B4B4B",
"F c #E30000",
"G c #EF0000",
"H c red",
"J c #F35353",
"K c gray34",
"L c white",
/* pixels */
"     .XoXXXXXXOOX.OXOXOXXOXOXXOOXOOXOOOXOOOXOX.OOXOOOXOOOXOOO ++     .XoXXXXXXOOX.OXOXOXXOXOXXOOXOOXOOOXOOOXOX.OOXOOOXOOOXOOO +",
"+++++Xo.O...++ +.++. . .. .+..  .  .+++.  +.+.+  . + . + .++ @ ++++++Xo.O...++ +.++. . .. .+..  .  .+++.  +.+.+  . + . + .++ @ ",
"#$$+ X. ... + ++ ..+ ++ +. . +++ +.+  +.... ++.+ +..+. .+    +@+#$$+ X. ... + ++ ..+ ++ +. . +++ +.+  +.... ++.+ +..+. .+    +@",
"%#$+.O+.  +.  .  ++.  ..+  ++++. ++ + +.   ++ +  + +   +.++ ++.+%#$+.O+.  +.  .  ++.  ..+  ++++. ++ + +.   ++ +  + +   +.++ ++.",
"&%#$ ..++ .******************************====--;;;;;;;;;;;;--==::>>**************************************************.+$.+ +  .",
"&%#$ X   + ******************************====--;;;;;;;;;;;;--==::>>**************************************************+ +. +   @",
"&%#$ O  ++ ************************>>**==--;;,,,,,,,,,,;;;;;;;;--<<::::>>>>>>**************************************** +   $ + .",
"&%#$ .   $ ************************>>**==--;;,,,,,,,,,,;;;;;;;;--<<::::>>>>>>**************************************** + $ ++ $@",
"&%#$ . $+ $********************>>**;;;;,,,,1122333333442211111155;;==<<::::>>>>**************************************+  ++++$+@",
"&%#$ .++ $+********************>>**;;;;,,,,1122333333442211111155;;==<<::::>>>>************************************** +++  ++$.",
"&%#$ +++$++**********************,,5566664477889999000077777777774455======::::************************************** +.$.++ $.",
"&%#$ + $+$$**********************,,5566664477889999000077777777774455======::::**************************************$.+ +$+$$@",
"&%#$ +++$++****************qq**1144447788wweerrrrrroottttyyttttttuuuu7733,,====::::**********************************.+$+$+$ +.",
"&%#$    $$ ****************qq**1144447788wweerrrrrroottttyyttttttuuuu7733,,====::::**********************************+$+$+$$$+@",
"&%#$ .++#++******qq******qqii553300ppaassyyyyyyyyyyyyttttttttyyyyrraappww003366;;<<dd>>******************************++$+$+##$@",
"&%#$ +$#++#******qq******qqii553300ppaassyyyyyyyyyyyyttttttttyyyyrraappww003366;;<<dd>>******************************$$+#+#$++@",
"&%#$ +++$#+qq**qq**qq**qq**ii3300uuaassrrrryyyyyyyyyyttyyyyyyyyyysseeppwwww99ff33;;dd<<dd**qq**qq**qq**qq**qq**qq****$+$+$$$+#@",
"&%#$ +$##+#qq**qq**qq**qq**ii3300uuaassrrrryyyyyyyyyyttyyyyyyyyyysseeppwwww99ff33;;dd<<dd**qq**qq**qq**qq**qq**qq****$+$$##$$++",
"&%#$ +$#$#$qqqqqqqqqqqqiiiigg00ppaassssssssrryyyyyyyyyyyyrrrraaaaaassaaeeppww99ffgg55dd::dd>>****qqqqqqqqqqqqqqqqqq**#$#$#$##++",
"&%#$ ++$$$$qqqqqqqqqqqqiiiigg00ppaassssssssrryyyyyyyyyyyyrrrraaaaaassaaeeppww99ffgg55dd::dd>>****qqqqqqqqqqqqqqqqqq**#$#$#$$## ",
"&%#$ .$$#$$iiqqiiqqiiiihhjj88wwaaaassssssssssrryyyyyyyyrrssaaaassssssssaaeeww990077jj55dddddd>>****iiqqiiqqiiqqiiqqqq$#$#$##$$+",
"&%#$ ++%$#%iiqqiiqqiiiihhjj88wwaaaassssssssssrryyyyyyyyrrssaaaassssssssaaeeww990077jj55dddddd>>****iiqqiiqqiiqqiiqqqq#$$+$###$ ",
"&%#$ .###%#iiiiiiiiiihhhhffuuppaaaaaassssssssssyyaayyssssaappwwwwppeeaassssssuu9900773366--ddddkk**qqiiiiiiqqiiiiiiqq#+#$###$#+",
"&%#$ .$$##%iiiiiiiiiihhhhffuuppaaaaaassssssssssyyaayyssssaappwwwwppeeaassssssuu9900773366--ddddkk**qqiiiiiiqqiiiiiiqq#$+######$",
"&%#$+ #$$%%hhiihhiihhhhjj99eeppaaaarrrrrrrrrraayyeeyyaappuu88777700wwppssyyyypp99llggggjj66;;<<dd>>qqiiiiiiiiiihhiiii$###$#%##$",
"&%#$++$%%#%hhiihhiihhhhjj99eeppaaaarrrrrrrrrraayyeeyyaappuu88777700wwppssyyyypp99llggggjj66;;<<dd>>qqiiiiiiiiiihhiiii&%#%#%###%",
"&%#$$+#%&%&hhhhhhhhzzzzffppppeeaaaarrrrrrrrrreerruuuu9977441155,,11ggjjggxxffpp0077jjjjjjgg55--<<dd**iiiiiiiihhiihhii&&&&&&&%&%",
"&%#$$$%&ccchhhhhhhhzzzzffppppeeaaaarrrrrrrrrreerruuuu9977441155,,11ggjjggxxffpp0077jjjjjjgg55--<<dd**iiiiiiiihhiihhii&&cccccccc",
"%##$$#%&&cczzhhzzzzzzjjppppeeeeaaaaaaaaww99aaaarrpp884455--====5555jjjj22115522jjgg221122336655==dd>>**iiiihhhhhhiihhcccccccccc",
"##$$$##%&&&zzhhzzzzzzjjppppeeeeaaaaaaaaww99aaaarrpp884455--====5555jjjj22115522jjgg221122336655==dd>>**iiiihhhhhhiihh&&&&&&&&&&",
"####$$$#$##hhzzzzzzzzffppeeeeeeaaeeffxx3377wwrrttww77,,<<====,,44llffxx2255,,;;----,,,,55446655--::dd>>qqhhhhhhhhhhhh#$$#$$$$##",
"... .. . . hhzzzzzzzzffppeeeeeeaaeeffxx3377wwrrttww77,,<<====,,44llffxx2255,,;;----,,,,55446655--::dd>>qqhhhhhhhhhhhh    @@@   ",
"OXOOOXOOOXOzzzzvvzzjj99ppeeaaaa00jj1155554488ttttpp77;;==--;;66221155,,====----;;;;--;;,,11111155<<dddd**iizzhhzzhhzzoXooXXXOOO",
" .+++.  +.+zzzzvvzzjj99ppeeaaaa00jj1155554488ttttpp77;;==--;;66221155,,====----;;;;--;;,,11111155<<dddd**iizzhhzzhhzzXXOXOXXOOX",
".+  +.... +zzvvvvbbffuueeaann00jj55;;;;;;--77ttttppff;;--;;,,,,,,66<<==--<<<<====--;;--,,555511,,<<ddddddiihhzzzzzzzz.......  .",
"+ + +.   ++zzvvvvbbffuueeaann00jj55;;;;;;--77ttttppff;;--;;,,,,,,66<<==--<<<<====--;;--,,555511,,<<ddddddiihhzzzzzzzz +. . +++ ",
".+.+ .+ ++ vvzzvvmm88ppppaaww99MM22551155;;77ttttppff--==<<==22nnxx221155;;----====--;;--555555;;<<ddddddqqhhzzvvzzvv.+  ++++. ",
"..  . .+.  vvzzvvmm88ppppaaww99MM22551155;;77ttttppff--==<<==22nnxx221155;;----====--;;--555555;;<<ddddddqqhhzzvvzzvv++ ++ . +$",
"+ +   ++ ++zzvvbbxx99ppppaaww99ll3322,,,,--77ttttpp77--<<55xx99ppppppppnn33661155,,;;;;;;5555,,--<<<<dddd**hhvvvvvvzz $+  +.++ ",
" + $ +  ++ zzvvbbxx99ppppaaww99ll3322,,,,--77ttttpp77--<<55xx99ppppppppnn33661155,,;;;;;;5555,,--<<<<dddd**hhvvvvvvzz+.+++ ..++",
" .++$ $+  +vvvv22ffwwppppwwMM22;;;;6655551188ttttww776611gguuaaaappnnMMff777777ggjj4422226655,,--<<<<ddddddiizzvvzzvv+$+   +$ +",
"++ ++ + +$+vvvv22ffwwppppwwMM22;;;;6655551188ttttww776611gguuaaaappnnMMff777777ggjj4422226655,,--<<<<ddddddiizzvvzzvv$+++$+++ $",
"$+ $ + + ++vvbb6600wwppppMM5511==,,ff44ffuuppssaa99ll33xxff88uuaapprrssssssssssssuu88ffjj6655;;--<<ddddddddqqvvvvvvvv+ +$ +$$$ ",
" +$++$+  +$vvbb6600wwppppMM5511==,,ff44ffuuppssaa99ll33xxff88uuaapprrssssssssssssuu88ffjj6655;;--<<ddddddddqqvvvvvvvv+ +++$$++$",
"$$$+$++$  +bb226688wwppMM22;;55xx88wwppppeeaaaaaa88ggxxuu99xx77wwssrrrrssaaaappuu99nn00xx2255;;--<<dddddddd**vvvvvvvv+++  #+$$$",
"+$#++ ++$+$bb226688wwppMM22;;55xx88wwppppeeaaaaaa88ggxxuu99xx77wwssrrrrssaaaappuu99nn00xx2255;;--<<dddddddd**vvvvvvvv.#+ $+#$+$",
"$$+#+$+$+$+vv6666nnwwuu33113399uuwwwwssssaaeeww772255662244664499ppppppppppuuuuuu9988ffgg2255----<<ddddddddddhhvvvvvv++$+$#+$#$",
"$$$+#$+$$+$vv6666nnwwuu33113399uuwwwwssssaaeeww772255662244664499ppppppppppuuuuuu9988ffgg2255----<<ddddddddddhhvvvvvv.$$+$$+$$$",
"$ +$+#$+$$$bb556699ppppgg77wwuuwwaassssaaeeuu6655;;<<<<========22ppeeppppuu99nn88MMffxxjj66,,----<<ddddddddddiibbvvbb$$$+ $++#$",
"+$#+##$$##$bb556699ppppgg77wwuuwwaassssaaeeuu6655;;<<<<========22ppeeppppuu99nn88MMffxxjj66,,----<<ddddddddddiibbvvbb##$+#$ +$#",
"#+###$##+##bb,,6699ppuu0099wwaaaaaasseeuuxx66;;======<<dddd<<==<<,,ppppuu99nnMM00ll77336655,,----<<dddddddddd**vvbbvv+$$#$#+#+$",
"##$#$$+$$$+bb,,6699ppuu0099wwaaaaaasseeuuxx66;;======<<dddd<<==<<,,ppppuu99nnMM00ll77336655,,----<<dddddddddd**vvbbvv$$#$+$#$#$",
"+###$##+##$bb,,6699eewwppaaaarrrrsspp883355<<dddd<<<<dddddddddddd::449999nn8800ffxxgg2255,,;;--==<<dddddddddd::bbvvbb##$#+$+#$+",
"#$$##$$####bb,,6699eewwppaaaarrrrsspp883355<<dddd<<<<dddddddddddd::449999nn8800ffxxgg2255,,;;--==<<dddddddddd::bbvvbb####$##$#$",
"$###$#$#$$#bb,,6699eeeeeeaarrrrrraa99gg,,==<<dddddddddddddddddddd::::339988MMffxxxx4455,,;;--====<<::dddddddd::zzbbbb%#####$#$#",
"##$#$$###$$bb,,6699eeeeeeaarrrrrraa99gg,,==<<dddddddddddddddddddd::::339988MMffxxxx4455,,;;--====<<::dddddddd::zzbbbb$%$##%#$#%",
"#%###$%###%NN,,6699eeaaaassrrrrsswwxx55<<<<<<dd<<dddddddddddddddd<<::==xxff00llxxjj11,,;;--========::dddddddd::hhbbbb%##%##%#%$",
"#%#%#%&&%%#NN,,6699eeaaaassrrrrsswwxx55<<<<<<dd<<dddddddddddddddd<<::==xxff00llxxjj11,,;;--========::dddddddd::hhbbbb#%%#%%#%#%",
"&&&&&cc&&&&bb556699eeaaaassrrssaa8866;;xxdddd<<dd<<<<<<dddddddddddd::::==gg77ggjj2255,,;;--====<<<<<<<<dddddd::hhbbbb&&&%&&%&&&",
"&&&&&&&&&&&bb556699eeaaaassrrssaa8866;;xxdddd<<dd<<<<<<dddddddddddd::::==gg77ggjj2255,,;;--====<<<<<<<<dddddd::hhbbbb&&&&&&&&&&",
"cccccccccccNN666688ppaaaassrrssww7755--55dd<<====--==<<<<<<<<dddddd<<::::,,33gg332255,,;;--====<<<<<<<<<<--====iibbNNcccccccccc",
"&&&&&&&&&&&NN666688ppaaaassrrssww7755--55dd<<====--==<<<<<<<<dddddd<<::::,,33gg332255,,;;--====<<<<<<<<<<--====iibbNN&&&&&&&&&&",
"%&&&%%#####NN4466ffwwaaeesssssswwgg;;----====--==<<dd22<<dddddddddd<<<<::<<2277xxjj66,,;;--====<<<<<<==--==<<<<==iibb$#$$######",
"#%%%$+  .  NN4466ffwwaaeesssssswwgg;;----====--==<<dd22<<dddddddddd<<<<::<<2277xxjj66,,;;--====<<<<<<==--==<<<<==iibb.... .. +$",
"$##$.XoXooXNNBB66xxuuaaaassssaauu11<<55==<<<<<<22;;dddd<<dd<<dddddd<<<<<<<<557700xx2255;;--====<<<<<<--==<<::::dd<<NNXOOOXOOO +",
"$##$XoXXO..NNBB66xxuuaaaassssaauu11<<55==<<<<<<22;;dddd<<dd<<dddddd<<<<<<<<557700xx2255;;--====<<<<<<--==<<::::dd<<NN. + .++ @ ",
"$$$+XXO... NNNN66gguuaaaaaaaaaa88,,<<==<<--;;==dddd<<<<<<dddddddd<<==<<<<<<,,3300ll4455;;--====<<<<<<<<<<<<==<<dd<<NN. .+    +@",
"$#$+OO.  +.NNNN66gguuaaaaaaaaaa88,,<<==<<--;;==dddd<<<<<<dddddddd<<==<<<<<<,,3300ll4455;;--====<<<<<<<<<<<<==<<dd<<NN  +.++ ++.",
"$##$O.++ .+BBNN66jj99eeaaaaaaee0055<<66--;;----;;--dd==--<<dddddddd<<==<<<<,,4400ffjj55;;--====<<<<<<<<<<<<====dd::BB.+$.+ +  .",
"#%#$.   + .BBNN66jj99eeaaaaaaee0055<<66--;;----;;--dd==--<<dddddddd<<==<<<<,,4400ffjj55;;--====<<<<<<<<<<<<====dd::BB+ +. +   @",
"#%#$.  ++ .NNBB446699ppeeaaaaee88,,<<gg2299xx==ddVV&&##CCVVZZVVdddddd<<<<==--44ll003355;;--====<<<<<<<<==dd====::::NN +   $ + .",
"#%#$.   $ +NNBB446699ppeeaaaaee88,,<<gg2299xx==ddVV&&##CCVVZZVVdddddd<<<<==--44ll003355;;--====<<<<<<<<==dd====::::NN + $ ++ $@",
"#%#$. $+ $+BBNNjj6699ppaaaaaaee99gg==uu888844ddAA<<<<dddddddddddddddd<<<<==,,44ll003355;;====<<<<<<<<<<--dd====::::BB+  ++++$+@",
"#%#$.++ $+$BBNNjj6699ppaaaaaaee99gg==uu888844ddAA<<<<dddddddddddddddd<<<<==,,44ll003355;;====<<<<<<<<<<--dd====::::BB +++  ++$.",
"#%#$. +$+++BBBBBB6688wwaaaaaaaauujj;;ppaa99,,dddddddddddddddddddddddddd<<==;;22xxffjj55;;====<<<<<<<<<<;;<<==<<::::BB +.$.++ $.",
"#%#$. $+$$+BBBBBB6688wwaaaaaaaauujj;;ppaa99,,dddddddddddddddddddddddddd<<==;;22xxffjj55;;====<<<<<<<<<<;;<<==<<::::BB$.+ +$+$$@",
"#%#$+++$++#BBBBBB6688wwaaaaaaaauu7733aarr88dddddddddddddddddddddddddddd==----22ggxx22,,--====<<<<<<<<<<;;dd<<<<ddqqBB.+$+$+$ +.",
"#%#$   $$ +BBBBBB6688wwaaaaaaaauu7733aarr88dddddddddddddddddddddddddddd==----22ggxx22,,--====<<<<<<<<<<;;dd<<<<ddqqBB+$+$+$$$+@",
"%%#$.++#+++BBBB77MM99wwaaaassssaa88ffaarr00ddddddddkkkkkkkkkkkkkkdddd==,,;;,,44xx3311,,--====<<<<<<<<<<--====<<ddiiBB++$+$+##$@",
"%%#$+$#++#$BBBB77MM99wwaaaassssaa88ffaarr00ddddddddkkkkkkkkkkkkkkdddd==,,;;,,44xx3311,,--====<<<<<<<<<<--====<<ddiiBB$$+#+#$++@",
"%%#$+++$#+#SSBBMM44ffwwaaaassssaapppprrrr77ddddkkkk>>kk>>qqzzqq>>kkdd;;55,,,,xx007766,,--==<<<<<<<<<<==----==<<::zzBB$+$+$$$+#@",
"%%#$+$##+##SSBBMM44ffwwaaaassssaapppprrrr77ddddkkkk>>kk>>qqzzqq>>kkdd;;55,,,,xx007766,,--==<<<<<<<<<<==----==<<::zzBB$+$$##$$++",
"%%#$+$#$#$$BBSSff66gguuaaaassssaauueessrr77ddddkkqqqq**>>>>**>>kkkk<<6611552299998844,,--<<<<<<<<<<<<<<====<<::qqBBBB#$#$#$##++",
"&%#$++$$$$#BBSSff66gguuaaaassssaauueessrr77ddddkkqqqq**>>>>**>>kkkk<<6611552299998844,,--<<<<<<<<<<<<<<====<<::qqBBBB#$#$#$$## ",
"%%#$.$$#$$+SSBBll555599eeaassssrr99uuaaaa77ddkkkk**>>kkkkDD&&11,,112222552200ppww8844,,--<<<<<<<<<<<<dd<<<<::<<vvBBSS$#$#$##$$+",
"&%#$++%$#%#SSBBll555599eeaassssrr99uuaaaa77ddkkkk**>>kkkkDD&&11,,112222552200ppww8844,,--<<<<<<<<<<<<dd<<<<::<<vvBBSS#$$+$###$ ",
"%%#$.###%##SSSS775555ffuueeaassaa99uuuussuu,,dd55++  xx7788aa9900xx66555533uuaapp9944,,--<<<<<<<<<<<<dddd<<qqvvBBSSBB#+#$###$#+",
"%%#$.$$##%%SSSS775555ffuueeaassaa99uuuussuu,,dd55++  xx7788aa9900xx66555533uuaapp9944,,--<<<<<<<<<<<<dddd<<qqvvBBSSBB#$+######$",
"%%#$ #$$%%#SSSS772211ffwwaaaaaarruunn99eerr99xx77uuwwrrppeepp99ll4455==,,jj99aapp9944,,--==<<<<<<<<<<dd<<<<vvBBSSSSSS$###$#%##$",
"&%#$+$%%#%#SSSS772211ffwwaaaaaarruunn99eerr99xx77uuwwrrppeepp99ll4455==,,jj99aapp9944,,--==<<<<<<<<<<dd<<<<vvBBSSSSSS&%#%#%###%",
"&%#$+#%%&&&SSSS77ffxxllwweeaaaaaaaauu99aassrraaaarrrrrraappnn883355;;--,,22ffppww0066;;--======<<<<<<dd<<NNBBSSSSSSSS&&&&&&&%&%",
"&%#$$%&ccccSSSS77ffxxllwweeaaaaaaaauu99aassrraaaarrrrrraappnn883355;;--,,22ffppww0066;;--======<<<<<<dd<<NNBBSSSSSSSS&&cccccccc",
"%%#$$#%&&ccFFSS77ffff00uueeaaaarrrreeuueerrrrrrssrrrraaaaaaee99ll4455,,5522ffppuu7755--======<<<<<<<<<<<<SSFFSSFFSSFFcccccccccc",
"%%#$$##%&&&FFSS77ffff00uueeaaaarrrreeuueerrrrrrssrrrraaaaaaee99ll4455,,5522ffppuu7755--======<<<<<<<<<<<<SSFFSSFFSSFF&&&&&&&&&&",
"##$$$$$$#$$SSFFFF77888899uuaaaaaarraaaauuyyyyrrrrrrrrrrrrssssee99ffjj1122xx99ee99jj;;========<<<<<<<<<<iiSSSSSSSSFFSS##$$$$####",
".@@ @@   @ SSFFFF77888899uuaaaaaarraaaauuyyyyrrrrrrrrrrrrssssee99ffjj1122xx99ee99jj;;========<<<<<<<<<<iiSSSSSSSSFFSS    ...   ",
"OXOOOXOOOXOFFSSFFxx777788uuaaaaaarrrrssssyyyyyyrrrrrrrryyyyssssww88llxxll99uuwwll11--======<<<<<<<<<<<<hhSSFFSSFFSSFFOOO.OOOOOO",
" .+++.  +.+FFSSFFxx777788uuaaaaaarrrrssssyyyyyyrrrrrrrryyyyssssww88llxxll99uuwwll11--======<<<<<<<<<<<<hhSSFFSSFFSSFFXXOXOXXOOX",
".+  +.... +FFFFFFFFgggg7700ppaaaassrrssrryyaassrrrryyyyyyyysseepp990000889999ff44,,============<<<<<<**vvFFFFFFFFFFFF.. .+..  .",
"+ + +.   ++FFFFFFFFgggg7700ppaaaassrrssrryyaassrrrryyyyyyyysseepp990000889999ff44,,============<<<<<<**vvFFFFFFFFFFFF +. . +++ ",
".+.+ .+ ++ FFFFFFFF3333117799eeppaaaassyyyyyyaassyyyyyyyyyysseeww8800000000gg11;;<<<<======<<<<<<<<::iiBBFFFFFFFFFFFF.+  ++++. ",
"..  . .+.  FFFFFFFF3333117799eeppaaaassyyyyyyaassyyyyyyyyyysseeww8800000000gg11;;<<<<======<<<<<<<<::iiBBFFFFFFFFFFFF++ ++ . +$",
"+ +   ++ ++FFFFFFGG4411;;ffMMwwaappeeaarryyyyyyaaaassyyyyrreeeeww88ff77xxjj55;;==<<::<<==<<<<<<<<<<>>hhFFFFFFFFFFFFFF $+  +.++ ",
" + $ +  ++ FFFFFFGG4411;;ffMMwwaappeeaarryyyyyyaaaassyyyyrreeeeww88ff77xxjj55;;==<<::<<==<<<<<<<<<<>>hhFFFFFFFFFFFFFF+.+++ ..++",
" .++$ $+  +GGFFGGFFGGFFHHxxff99ppaappeeaarryyyyyyaasssssseeaapp990077jj11,,--==::::<<====<<<<<<<<==**vvGGFFGGFFGGFFGG+$+   +$ +",
"++ ++ + +$+GGFFGGFFGGFFHHxxff99ppaappeeaarryyyyyyaasssssseeaapp990077jj11,,--==::::<<====<<<<<<<<==**vvGGFFGGFFGGFFGG$+++$+++ $",
"$+ $ + + ++GGGGFFGGFFGGFFHHxxff99eeaawwppeeaarrrrssssaaaappuu99ffgg66,,--<<::::dd::<<====<<<<<<<<==**vvFFGGFFGGFFGGFF+ +$ +$$$ ",
" +$++$+  +$GGGGFFGGFFGGFFHHxxff99eeaawwppeeaarrrrssssaaaappuu99ffgg66,,--<<::::dd::<<====<<<<<<<<==**vvFFGGFFGGFFGGFF+ +++$$++$",
"$$$+$++$  +GGFFGGFFGGFFGGFFggxxff99aaaauuppeeaaaaeewwuu990077gg2255;;==::::dd::::<<====<<<<<<<<====**vvGGFFGGFFGGFFGG+++  #+$$$",
"+$#++ ++$+$GGFFGGFFGGFFGGFFggxxff99aaaauuppeeaaaaeewwuu990077gg2255;;==::::dd::::<<====<<<<<<<<====**vvGGFFGGFFGGFFGG.#+ $+#$+$",
"$$+#+$+$+$+GGGGGGGGGGGGGGGGHHggxxff99aaaauuuuwwuu88ff77xx4411,,;;==::::dd::::<<<<====<<<<<<<<======,,vvGGGGGGGGGGGGGG++$+$#+$#$",
"$$$+#$+$$+$GGGGGGGGGGGGGGGGHHggxxff99aaaauuuuwwuu88ff77xx4411,,;;==::::dd::::<<<<====<<<<<<<<======,,vvGGGGGGGGGGGGGG.$$+$$+$$$",
"$ +$+#$+$$$GGGGHHGGGGGGHHGGGGgg77xxff99uuuu99ffgg2255,,,,;;--<<::::dddd<<<<========<<<<<<<<========55llJJGGGGFFGGGGGG$$$+ $++#$",
"+$#+##$$##$GGGGHHGGGGGGHHGGGGgg77xxff99uuuu99ffgg2255,,,,;;--<<::::dddd<<<<========<<<<<<<<========55llJJGGGGFFGGGGGG##$+#$ +$#",
"#+###$##+##GGGGGGGGGGGGGGGGGGGGgg77xx0088nn88ff3311--==<<<<::::::<<============<<<<<<<<<<==========<<ppppGGGGGGGGGGGG+$$#$#+#+$",
"##$#$$+$$$+GGGGGGGGGGGGGGGGGGGGgg77xx0088nn88ff3311--==<<<<::::::<<============<<<<<<<<<<==========<<ppppGGGGGGGGGGGG$$#$+$#$#$",
"+###$##+##$HHGGHHGGHHGGHHGGHHGGggxx77xx77ffllllxx11;;;;----------==========<<<<<<<<<<<<==========ddyyssppGGHHGGHHGGGG##$#+$+#$+",
"#$$##$$####HHGGHHGGHHGGHHGGHHGGggxx77xx77ffllllxx11;;;;----------==========<<<<<<<<<<<<==========ddyyssppGGHHGGHHGGGG####$##$#$",
"$###$#$#$$#GGHHHHHHGGHHHHHHGGHHHHggxx77xxxxxx773333,,--====----======<<<<<<<<<<<<<<<<==========44yyyyaappHHGGHHGGHHGG%#####$#$#",
"##$#$$###$$GGHHHHHHGGHHHHHHGGHHHHggxx77xxxxxx773333,,--====----======<<<<<<<<<<<<<<<<==========44yyyyaappHHGGHHGGHHGG$%$##%#$#%",
"#%###$%###%HHGGHHHHHHGGHHHHHHGGHH3333xx7777xxxxjj44,,==--==<<<<<<<<<<<<<<<<<<<<<<======<<==xxppssrraayyllGGHHGGHHGGGG%##%##%#%$",
"#%#%#%&&%%#HHGGHHHHHHGGHHHHHHGGHH3333xx7777xxxxjj44,,==--==<<<<<<<<<<<<<<<<<<<<<<======<<==xxppssrraayyllGGHHGGHHGGGG#%%#%%#%#%",
"&&&&&cc&&&&c&&cc&&c&&&&&&&%&%&&%#$$+#%&%&&&&&&&&&&&&&&&&&&&&&&&&&&&&&&cc&&&&c&&cc&&c&&&&&&%%%&&%#$$+#%&&cc&&%&&%&%&&&&&&%&&%&&&",
"&&&&&&&&&&&&&&&&&&&&&ccccccccc&%#$$$%&ccccccc&&&&&&&&&&&&&&&&&&&&&&&&&&&&&&&&&&&&&&&&ccccccccc&%#$$$%&ccccccc&&&&&&&&&&&&&&&&&&",
"Kccccccccccccccccccccccccccc&&%%#$$#%&ccccccccccccccccccccccccccccccccccccccccccccccccccccccc&%%#$$#%&ccccccccccccccccccccccccc",
"&&&&&&&&&&&&&&&&&&&&&&&&&&&&%%%%#$$##%&&&&&&&&&&&&&&&&&&&&&&&&&&&&&&&&&&&&&&&&&&&&&&&&&&&&&&%%%%#$$##%&&&&&&&&&&&&&&&&&&&&&&&&&",
"+##############################################################################################################################"
};
